solid Mesh
  facet normal 0 1 0
    outer loop
      vertex -38.4841 0 -106.371
      vertex -37.1532 0 -105.603
      vertex -38.4297 0 -106.476
    endloop
  endfacet
  facet normal 0 1 0
    outer loop
      vertex -37.1532 0 -105.603
      vertex -37.0369 0 -105.826
      vertex -38.4297 0 -106.476
    endloop
  endfacet
  facet normal 0 1 0
    outer loop
      vertex -38.4297 0 -106.476
      vertex -37.0369 0 -105.826
      vertex -38.3846 0 -106.585
    endloop
  endfacet
  facet normal 0 1 0
    outer loop
      vertex -37.0369 0 -105.826
      vertex -36.9406 0 -106.059
      vertex -38.3846 0 -106.585
    endloop
  endfacet
  facet normal 0 1 0
    outer loop
      vertex -38.3846 0 -106.585
      vertex -36.9406 0 -106.059
      vertex -38.3492 0 -106.697
    endloop
  endfacet
  facet normal 0 1 0
    outer loop
      vertex -36.9406 0 -106.059
      vertex -36.8648 0 -106.299
      vertex -38.3492 0 -106.697
    endloop
  endfacet
  facet normal 0 1 0
    outer loop
      vertex -38.3492 0 -106.697
      vertex -36.8648 0 -106.299
      vertex -38.3237 0 -106.812
    endloop
  endfacet
  facet normal 0 1 0
    outer loop
      vertex -36.8648 0 -106.299
      vertex -36.8103 0 -106.545
      vertex -38.3237 0 -106.812
    endloop
  endfacet
  facet normal 0 1 0
    outer loop
      vertex -38.3237 0 -106.812
      vertex -36.8103 0 -106.545
      vertex -38.3084 0 -106.929
    endloop
  endfacet
  facet normal 0 1 0
    outer loop
      vertex -36.8103 0 -106.545
      vertex -36.7774 0 -106.795
      vertex -38.3084 0 -106.929
    endloop
  endfacet
  facet normal 0 1 0
    outer loop
      vertex -38.3084 0 -106.929
      vertex -36.7774 0 -106.795
      vertex -38.3032 0 -107.046
    endloop
  endfacet
  facet normal 0 1 0
    outer loop
      vertex -36.7774 0 -106.795
      vertex -36.7665 0 -107.046
      vertex -38.3032 0 -107.046
    endloop
  endfacet
  facet normal 0 1 0
    outer loop
      vertex -38.3032 0 -107.046
      vertex -36.7665 0 -107.046
      vertex -38.3084 0 -107.164
    endloop
  endfacet
  facet normal 0 1 0
    outer loop
      vertex -36.7665 0 -107.046
      vertex -36.7774 0 -107.298
      vertex -38.3084 0 -107.164
    endloop
  endfacet
  facet normal 0 1 0
    outer loop
      vertex -38.3084 0 -107.164
      vertex -36.7774 0 -107.298
      vertex -38.3237 0 -107.281
    endloop
  endfacet
  facet normal 0 1 0
    outer loop
      vertex -36.7774 0 -107.298
      vertex -36.8103 0 -107.548
      vertex -38.3237 0 -107.281
    endloop
  endfacet
  facet normal 0 1 0
    outer loop
      vertex -38.3237 0 -107.281
      vertex -36.8103 0 -107.548
      vertex -38.3492 0 -107.396
    endloop
  endfacet
  facet normal 0 1 0
    outer loop
      vertex -36.8103 0 -107.548
      vertex -36.8648 0 -107.794
      vertex -38.3492 0 -107.396
    endloop
  endfacet
  facet normal 0 1 0
    outer loop
      vertex -38.3492 0 -107.396
      vertex -36.8648 0 -107.794
      vertex -38.3846 0 -107.508
    endloop
  endfacet
  facet normal 0 1 0
    outer loop
      vertex -36.8648 0 -107.794
      vertex -36.9406 0 -108.034
      vertex -38.3846 0 -107.508
    endloop
  endfacet
  facet normal 0 1 0
    outer loop
      vertex -38.3846 0 -107.508
      vertex -36.9406 0 -108.034
      vertex -38.4297 0 -107.617
    endloop
  endfacet
  facet normal 0 1 0
    outer loop
      vertex -36.9406 0 -108.034
      vertex -37.0369 0 -108.266
      vertex -38.4297 0 -107.617
    endloop
  endfacet
  facet normal 0 1 0
    outer loop
      vertex -38.4297 0 -107.617
      vertex -37.0369 0 -108.266
      vertex -38.4841 0 -107.721
    endloop
  endfacet
  facet normal 0 1 0
    outer loop
      vertex -37.0369 0 -108.266
      vertex -37.1532 0 -108.49
      vertex -38.4841 0 -107.721
    endloop
  endfacet
  facet normal 0 1 0
    outer loop
      vertex -38.4841 0 -107.721
      vertex -37.1532 0 -108.49
      vertex -38.5474 0 -107.821
    endloop
  endfacet
  facet normal 0 1 0
    outer loop
      vertex -37.1532 0 -108.49
      vertex -37.2885 0 -108.702
      vertex -38.5474 0 -107.821
    endloop
  endfacet
  facet normal 0 1 0
    outer loop
      vertex -38.5474 0 -107.821
      vertex -37.2885 0 -108.702
      vertex -38.6191 0 -107.914
    endloop
  endfacet
  facet normal 0 1 0
    outer loop
      vertex -37.2885 0 -108.702
      vertex -37.4418 0 -108.902
      vertex -38.6191 0 -107.914
    endloop
  endfacet
  facet normal 0 1 0
    outer loop
      vertex -38.6191 0 -107.914
      vertex -37.4418 0 -108.902
      vertex -38.6986 0 -108.001
    endloop
  endfacet
  facet normal 0 1 0
    outer loop
      vertex -37.4418 0 -108.902
      vertex -37.612 0 -109.088
      vertex -38.6986 0 -108.001
    endloop
  endfacet
  facet normal 0 1 0
    outer loop
      vertex -38.6986 0 -108.001
      vertex -37.612 0 -109.088
      vertex -38.7855 0 -108.081
    endloop
  endfacet
  facet normal 0 1 0
    outer loop
      vertex -37.612 0 -109.088
      vertex -37.7976 0 -109.258
      vertex -38.7855 0 -108.081
    endloop
  endfacet
  facet normal 0 1 0
    outer loop
      vertex -38.7855 0 -108.081
      vertex -37.7976 0 -109.258
      vertex -38.8789 0 -108.152
    endloop
  endfacet
  facet normal 0 1 0
    outer loop
      vertex -37.7976 0 -109.258
      vertex -37.9974 0 -109.411
      vertex -38.8789 0 -108.152
    endloop
  endfacet
  facet normal 0 1 0
    outer loop
      vertex -38.8789 0 -108.152
      vertex -37.9974 0 -109.411
      vertex -38.9782 0 -108.216
    endloop
  endfacet
  facet normal 0 1 0
    outer loop
      vertex -37.9974 0 -109.411
      vertex -38.2098 0 -109.546
      vertex -38.9782 0 -108.216
    endloop
  endfacet
  facet normal 0 1 0
    outer loop
      vertex -38.9782 0 -108.216
      vertex -38.2098 0 -109.546
      vertex -39.0827 0 -108.27
    endloop
  endfacet
  facet normal 0 1 0
    outer loop
      vertex -38.2098 0 -109.546
      vertex -38.4332 0 -109.663
      vertex -39.0827 0 -108.27
    endloop
  endfacet
  facet normal 0 1 0
    outer loop
      vertex -39.0827 0 -108.27
      vertex -38.4332 0 -109.663
      vertex -39.1915 0 -108.315
    endloop
  endfacet
  facet normal 0 1 0
    outer loop
      vertex -38.4332 0 -109.663
      vertex -38.6659 0 -109.759
      vertex -39.1915 0 -108.315
    endloop
  endfacet
  facet normal 0 1 0
    outer loop
      vertex -39.1915 0 -108.315
      vertex -38.6659 0 -109.759
      vertex -39.3038 0 -108.35
    endloop
  endfacet
  facet normal 0 1 0
    outer loop
      vertex -38.6659 0 -109.759
      vertex -38.9061 0 -109.835
      vertex -39.3038 0 -108.35
    endloop
  endfacet
  facet normal 0 1 0
    outer loop
      vertex -39.3038 0 -108.35
      vertex -38.9061 0 -109.835
      vertex -39.4188 0 -108.376
    endloop
  endfacet
  facet normal 0 1 0
    outer loop
      vertex -38.9061 0 -109.835
      vertex -39.1519 0 -109.889
      vertex -39.4188 0 -108.376
    endloop
  endfacet
  facet normal 0 1 0
    outer loop
      vertex -39.4188 0 -108.376
      vertex -39.1519 0 -109.889
      vertex -39.5356 0 -108.391
    endloop
  endfacet
  facet normal 0 1 0
    outer loop
      vertex -39.1519 0 -109.889
      vertex -39.4016 0 -109.922
      vertex -39.5356 0 -108.391
    endloop
  endfacet
  facet normal 0 1 0
    outer loop
      vertex -39.5356 0 -108.391
      vertex -39.4016 0 -109.922
      vertex -39.6532 0 -108.396
    endloop
  endfacet
  facet normal 0 1 0
    outer loop
      vertex -39.4016 0 -109.922
      vertex -39.6532 0 -109.933
      vertex -39.6532 0 -108.396
    endloop
  endfacet
  facet normal 0 1 0
    outer loop
      vertex -39.6532 0 -108.396
      vertex -39.6532 0 -109.933
      vertex -39.7709 0 -108.391
    endloop
  endfacet
  facet normal 0 1 0
    outer loop
      vertex -39.6532 0 -109.933
      vertex -39.9048 0 -109.922
      vertex -39.7709 0 -108.391
    endloop
  endfacet
  facet normal 0 1 0
    outer loop
      vertex -39.7709 0 -108.391
      vertex -39.9048 0 -109.922
      vertex -39.8876 0 -108.376
    endloop
  endfacet
  facet normal 0 1 0
    outer loop
      vertex -39.9048 0 -109.922
      vertex -40.1545 0 -109.889
      vertex -39.8876 0 -108.376
    endloop
  endfacet
  facet normal 0 1 0
    outer loop
      vertex -39.8876 0 -108.376
      vertex -40.1545 0 -109.889
      vertex -40.0026 0 -108.35
    endloop
  endfacet
  facet normal 0 1 0
    outer loop
      vertex -40.1545 0 -109.889
      vertex -40.4004 0 -109.835
      vertex -40.0026 0 -108.35
    endloop
  endfacet
  facet normal 0 1 0
    outer loop
      vertex -40.0026 0 -108.35
      vertex -40.4004 0 -109.835
      vertex -40.1149 0 -108.315
    endloop
  endfacet
  facet normal 0 1 0
    outer loop
      vertex -40.4004 0 -109.835
      vertex -40.6405 0 -109.759
      vertex -40.1149 0 -108.315
    endloop
  endfacet
  facet normal 0 1 0
    outer loop
      vertex -40.1149 0 -108.315
      vertex -40.6405 0 -109.759
      vertex -40.2238 0 -108.27
    endloop
  endfacet
  facet normal 0 1 0
    outer loop
      vertex -40.6405 0 -109.759
      vertex -40.8732 0 -109.663
      vertex -40.2238 0 -108.27
    endloop
  endfacet
  facet normal 0 1 0
    outer loop
      vertex -40.2238 0 -108.27
      vertex -40.8732 0 -109.663
      vertex -40.3282 0 -108.216
    endloop
  endfacet
  facet normal 0 1 0
    outer loop
      vertex -40.8732 0 -109.663
      vertex -41.0966 0 -109.546
      vertex -40.3282 0 -108.216
    endloop
  endfacet
  facet normal 0 1 0
    outer loop
      vertex -40.3282 0 -108.216
      vertex -41.0966 0 -109.546
      vertex -40.4275 0 -108.152
    endloop
  endfacet
  facet normal 0 1 0
    outer loop
      vertex -41.0966 0 -109.546
      vertex -41.309 0 -109.411
      vertex -40.4275 0 -108.152
    endloop
  endfacet
  facet normal 0 1 0
    outer loop
      vertex -40.4275 0 -108.152
      vertex -41.309 0 -109.411
      vertex -40.521 0 -108.081
    endloop
  endfacet
  facet normal 0 1 0
    outer loop
      vertex -41.309 0 -109.411
      vertex -41.5088 0 -109.258
      vertex -40.521 0 -108.081
    endloop
  endfacet
  facet normal 0 1 0
    outer loop
      vertex -40.521 0 -108.081
      vertex -41.5088 0 -109.258
      vertex -40.6078 0 -108.001
    endloop
  endfacet
  facet normal 0 1 0
    outer loop
      vertex -41.5088 0 -109.258
      vertex -41.6945 0 -109.088
      vertex -40.6078 0 -108.001
    endloop
  endfacet
  facet normal 0 1 0
    outer loop
      vertex -40.6078 0 -108.001
      vertex -41.6945 0 -109.088
      vertex -40.6874 0 -107.914
    endloop
  endfacet
  facet normal 0 1 0
    outer loop
      vertex -41.6945 0 -109.088
      vertex -41.8646 0 -108.902
      vertex -40.6874 0 -107.914
    endloop
  endfacet
  facet normal 0 1 0
    outer loop
      vertex -40.6874 0 -107.914
      vertex -41.8646 0 -108.902
      vertex -40.7591 0 -107.821
    endloop
  endfacet
  facet normal 0 1 0
    outer loop
      vertex -41.8646 0 -108.902
      vertex -42.0179 0 -108.702
      vertex -40.7591 0 -107.821
    endloop
  endfacet
  facet normal 0 1 0
    outer loop
      vertex -40.7591 0 -107.821
      vertex -42.0179 0 -108.702
      vertex -40.8223 0 -107.721
    endloop
  endfacet
  facet normal 0 1 0
    outer loop
      vertex -42.0179 0 -108.702
      vertex -42.1532 0 -108.49
      vertex -40.8223 0 -107.721
    endloop
  endfacet
  facet normal 0 1 0
    outer loop
      vertex -40.8223 0 -107.721
      vertex -42.1532 0 -108.49
      vertex -40.8767 0 -107.617
    endloop
  endfacet
  facet normal 0 1 0
    outer loop
      vertex -42.1532 0 -108.49
      vertex -42.2695 0 -108.266
      vertex -40.8767 0 -107.617
    endloop
  endfacet
  facet normal 0 1 0
    outer loop
      vertex -40.8767 0 -107.617
      vertex -42.2695 0 -108.266
      vertex -40.9218 0 -107.508
    endloop
  endfacet
  facet normal 0 1 0
    outer loop
      vertex -42.2695 0 -108.266
      vertex -42.3659 0 -108.034
      vertex -40.9218 0 -107.508
    endloop
  endfacet
  facet normal 0 1 0
    outer loop
      vertex -40.9218 0 -107.508
      vertex -42.3659 0 -108.034
      vertex -40.9572 0 -107.396
    endloop
  endfacet
  facet normal 0 1 0
    outer loop
      vertex -42.3659 0 -108.034
      vertex -42.4416 0 -107.794
      vertex -40.9572 0 -107.396
    endloop
  endfacet
  facet normal 0 1 0
    outer loop
      vertex -40.9572 0 -107.396
      vertex -42.4416 0 -107.794
      vertex -40.9827 0 -107.281
    endloop
  endfacet
  facet normal 0 1 0
    outer loop
      vertex -42.4416 0 -107.794
      vertex -42.4961 0 -107.548
      vertex -40.9827 0 -107.281
    endloop
  endfacet
  facet normal 0 1 0
    outer loop
      vertex -40.9827 0 -107.281
      vertex -42.4961 0 -107.548
      vertex -40.9981 0 -107.164
    endloop
  endfacet
  facet normal 0 1 0
    outer loop
      vertex -42.4961 0 -107.548
      vertex -42.529 0 -107.298
      vertex -40.9981 0 -107.164
    endloop
  endfacet
  facet normal 0 1 0
    outer loop
      vertex -40.9981 0 -107.164
      vertex -42.529 0 -107.298
      vertex -41.0032 0 -107.046
    endloop
  endfacet
  facet normal 0 1 0
    outer loop
      vertex -42.529 0 -107.298
      vertex -42.54 0 -107.046
      vertex -41.0032 0 -107.046
    endloop
  endfacet
  facet normal 0 1 0
    outer loop
      vertex -41.0032 0 -107.046
      vertex -42.54 0 -107.046
      vertex -40.9981 0 -106.929
    endloop
  endfacet
  facet normal 0 1 0
    outer loop
      vertex -42.54 0 -107.046
      vertex -42.529 0 -106.795
      vertex -40.9981 0 -106.929
    endloop
  endfacet
  facet normal 0 1 0
    outer loop
      vertex -40.9981 0 -106.929
      vertex -42.529 0 -106.795
      vertex -40.9827 0 -106.812
    endloop
  endfacet
  facet normal 0 1 0
    outer loop
      vertex -42.529 0 -106.795
      vertex -42.4961 0 -106.545
      vertex -40.9827 0 -106.812
    endloop
  endfacet
  facet normal 0 1 0
    outer loop
      vertex -40.9827 0 -106.812
      vertex -42.4961 0 -106.545
      vertex -40.9572 0 -106.697
    endloop
  endfacet
  facet normal 0 1 0
    outer loop
      vertex -42.4961 0 -106.545
      vertex -42.4416 0 -106.299
      vertex -40.9572 0 -106.697
    endloop
  endfacet
  facet normal 0 1 0
    outer loop
      vertex -40.9572 0 -106.697
      vertex -42.4416 0 -106.299
      vertex -40.9218 0 -106.585
    endloop
  endfacet
  facet normal 0 1 0
    outer loop
      vertex -42.4416 0 -106.299
      vertex -42.3659 0 -106.059
      vertex -40.9218 0 -106.585
    endloop
  endfacet
  facet normal 0 1 0
    outer loop
      vertex -40.9218 0 -106.585
      vertex -42.3659 0 -106.059
      vertex -40.8767 0 -106.476
    endloop
  endfacet
  facet normal 0 1 0
    outer loop
      vertex -42.3659 0 -106.059
      vertex -42.2695 0 -105.826
      vertex -40.8767 0 -106.476
    endloop
  endfacet
  facet normal 0 1 0
    outer loop
      vertex -40.8767 0 -106.476
      vertex -42.2695 0 -105.826
      vertex -40.8223 0 -106.371
    endloop
  endfacet
  facet normal 0 1 0
    outer loop
      vertex -42.2695 0 -105.826
      vertex -42.1532 0 -105.603
      vertex -40.8223 0 -106.371
    endloop
  endfacet
  facet normal 0 1 0
    outer loop
      vertex -40.8223 0 -106.371
      vertex -42.1532 0 -105.603
      vertex -40.7591 0 -106.272
    endloop
  endfacet
  facet normal 0 1 0
    outer loop
      vertex -42.1532 0 -105.603
      vertex -42.0179 0 -105.391
      vertex -40.7591 0 -106.272
    endloop
  endfacet
  facet normal 0 1 0
    outer loop
      vertex -40.7591 0 -106.272
      vertex -42.0179 0 -105.391
      vertex -40.6874 0 -106.179
    endloop
  endfacet
  facet normal 0 1 0
    outer loop
      vertex -42.0179 0 -105.391
      vertex -41.8646 0 -105.191
      vertex -40.6874 0 -106.179
    endloop
  endfacet
  facet normal 0 1 0
    outer loop
      vertex -40.6874 0 -106.179
      vertex -41.8646 0 -105.191
      vertex -40.6078 0 -106.092
    endloop
  endfacet
  facet normal 0 1 0
    outer loop
      vertex -41.8646 0 -105.191
      vertex -41.6945 0 -105.005
      vertex -40.6078 0 -106.092
    endloop
  endfacet
  facet normal 0 1 0
    outer loop
      vertex -40.6078 0 -106.092
      vertex -41.6945 0 -105.005
      vertex -40.521 0 -106.012
    endloop
  endfacet
  facet normal 0 1 0
    outer loop
      vertex -41.6945 0 -105.005
      vertex -41.5088 0 -104.835
      vertex -40.521 0 -106.012
    endloop
  endfacet
  facet normal 0 1 0
    outer loop
      vertex -40.521 0 -106.012
      vertex -41.5088 0 -104.835
      vertex -40.4275 0 -105.941
    endloop
  endfacet
  facet normal 0 1 0
    outer loop
      vertex -41.5088 0 -104.835
      vertex -41.309 0 -104.682
      vertex -40.4275 0 -105.941
    endloop
  endfacet
  facet normal 0 1 0
    outer loop
      vertex -40.4275 0 -105.941
      vertex -41.309 0 -104.682
      vertex -40.3282 0 -105.877
    endloop
  endfacet
  facet normal 0 1 0
    outer loop
      vertex -41.309 0 -104.682
      vertex -41.0966 0 -104.546
      vertex -40.3282 0 -105.877
    endloop
  endfacet
  facet normal 0 1 0
    outer loop
      vertex -40.3282 0 -105.877
      vertex -41.0966 0 -104.546
      vertex -40.2238 0 -105.823
    endloop
  endfacet
  facet normal 0 1 0
    outer loop
      vertex -41.0966 0 -104.546
      vertex -40.8732 0 -104.43
      vertex -40.2238 0 -105.823
    endloop
  endfacet
  facet normal 0 1 0
    outer loop
      vertex -40.2238 0 -105.823
      vertex -40.8732 0 -104.43
      vertex -40.1149 0 -105.778
    endloop
  endfacet
  facet normal 0 1 0
    outer loop
      vertex -40.8732 0 -104.43
      vertex -40.6405 0 -104.334
      vertex -40.1149 0 -105.778
    endloop
  endfacet
  facet normal 0 1 0
    outer loop
      vertex -40.1149 0 -105.778
      vertex -40.6405 0 -104.334
      vertex -40.0026 0 -105.742
    endloop
  endfacet
  facet normal 0 1 0
    outer loop
      vertex -40.6405 0 -104.334
      vertex -40.4004 0 -104.258
      vertex -40.0026 0 -105.742
    endloop
  endfacet
  facet normal 0 1 0
    outer loop
      vertex -40.0026 0 -105.742
      vertex -40.4004 0 -104.258
      vertex -39.8876 0 -105.717
    endloop
  endfacet
  facet normal 0 1 0
    outer loop
      vertex -40.4004 0 -104.258
      vertex -40.1545 0 -104.204
      vertex -39.8876 0 -105.717
    endloop
  endfacet
  facet normal 0 1 0
    outer loop
      vertex -39.8876 0 -105.717
      vertex -40.1545 0 -104.204
      vertex -39.7709 0 -105.702
    endloop
  endfacet
  facet normal 0 1 0
    outer loop
      vertex -40.1545 0 -104.204
      vertex -39.9048 0 -104.171
      vertex -39.7709 0 -105.702
    endloop
  endfacet
  facet normal 0 1 0
    outer loop
      vertex -39.7709 0 -105.702
      vertex -39.9048 0 -104.171
      vertex -39.6532 0 -105.696
    endloop
  endfacet
  facet normal 0 1 0
    outer loop
      vertex -39.9048 0 -104.171
      vertex -39.6532 0 -104.16
      vertex -39.6532 0 -105.696
    endloop
  endfacet
  facet normal 0 1 0
    outer loop
      vertex -39.6532 0 -105.696
      vertex -39.6532 0 -104.16
      vertex -39.5356 0 -105.702
    endloop
  endfacet
  facet normal 0 1 0
    outer loop
      vertex -39.6532 0 -104.16
      vertex -39.4016 0 -104.171
      vertex -39.5356 0 -105.702
    endloop
  endfacet
  facet normal 0 1 0
    outer loop
      vertex -39.5356 0 -105.702
      vertex -39.4016 0 -104.171
      vertex -39.4188 0 -105.717
    endloop
  endfacet
  facet normal 0 1 0
    outer loop
      vertex -39.4016 0 -104.171
      vertex -39.1519 0 -104.204
      vertex -39.4188 0 -105.717
    endloop
  endfacet
  facet normal 0 1 0
    outer loop
      vertex -39.4188 0 -105.717
      vertex -39.1519 0 -104.204
      vertex -39.3038 0 -105.742
    endloop
  endfacet
  facet normal 0 1 0
    outer loop
      vertex -39.1519 0 -104.204
      vertex -38.9061 0 -104.258
      vertex -39.3038 0 -105.742
    endloop
  endfacet
  facet normal 0 1 0
    outer loop
      vertex -39.3038 0 -105.742
      vertex -38.9061 0 -104.258
      vertex -39.1915 0 -105.778
    endloop
  endfacet
  facet normal 0 1 0
    outer loop
      vertex -38.9061 0 -104.258
      vertex -38.6659 0 -104.334
      vertex -39.1915 0 -105.778
    endloop
  endfacet
  facet normal 0 1 0
    outer loop
      vertex -39.1915 0 -105.778
      vertex -38.6659 0 -104.334
      vertex -39.0827 0 -105.823
    endloop
  endfacet
  facet normal 0 1 0
    outer loop
      vertex -38.6659 0 -104.334
      vertex -38.4332 0 -104.43
      vertex -39.0827 0 -105.823
    endloop
  endfacet
  facet normal 0 1 0
    outer loop
      vertex -39.0827 0 -105.823
      vertex -38.4332 0 -104.43
      vertex -38.9782 0 -105.877
    endloop
  endfacet
  facet normal 0 1 0
    outer loop
      vertex -38.4332 0 -104.43
      vertex -38.2098 0 -104.546
      vertex -38.9782 0 -105.877
    endloop
  endfacet
  facet normal 0 1 0
    outer loop
      vertex -38.9782 0 -105.877
      vertex -38.2098 0 -104.546
      vertex -38.8789 0 -105.941
    endloop
  endfacet
  facet normal 0 1 0
    outer loop
      vertex -38.2098 0 -104.546
      vertex -37.9974 0 -104.682
      vertex -38.8789 0 -105.941
    endloop
  endfacet
  facet normal 0 1 0
    outer loop
      vertex -38.8789 0 -105.941
      vertex -37.9974 0 -104.682
      vertex -38.7855 0 -106.012
    endloop
  endfacet
  facet normal 0 1 0
    outer loop
      vertex -37.9974 0 -104.682
      vertex -37.7976 0 -104.835
      vertex -38.7855 0 -106.012
    endloop
  endfacet
  facet normal 0 1 0
    outer loop
      vertex -38.7855 0 -106.012
      vertex -37.7976 0 -104.835
      vertex -38.6986 0 -106.092
    endloop
  endfacet
  facet normal 0 1 0
    outer loop
      vertex -37.7976 0 -104.835
      vertex -37.612 0 -105.005
      vertex -38.6986 0 -106.092
    endloop
  endfacet
  facet normal 0 1 0
    outer loop
      vertex -38.6986 0 -106.092
      vertex -37.612 0 -105.005
      vertex -38.6191 0 -106.179
    endloop
  endfacet
  facet normal 0 1 0
    outer loop
      vertex -37.612 0 -105.005
      vertex -37.4418 0 -105.191
      vertex -38.6191 0 -106.179
    endloop
  endfacet
  facet normal 0 1 0
    outer loop
      vertex -38.6191 0 -106.179
      vertex -37.4418 0 -105.191
      vertex -38.5474 0 -106.272
    endloop
  endfacet
  facet normal 0 1 0
    outer loop
      vertex -37.4418 0 -105.191
      vertex -37.2885 0 -105.391
      vertex -38.5474 0 -106.272
    endloop
  endfacet
  facet normal 0 1 0
    outer loop
      vertex -38.5474 0 -106.272
      vertex -37.2885 0 -105.391
      vertex -38.4841 0 -106.371
    endloop
  endfacet
  facet normal 0 1 0
    outer loop
      vertex -37.2885 0 -105.391
      vertex -37.1532 0 -105.603
      vertex -38.4841 0 -106.371
    endloop
  endfacet
  facet normal 0 -1 0
    outer loop
      vertex -38.4841 -10 -107.721
      vertex -37.1532 -10 -108.49
      vertex -38.4297 -10 -107.617
    endloop
  endfacet
  facet normal 0 -1 0
    outer loop
      vertex -37.1532 -10 -108.49
      vertex -37.0369 -10 -108.266
      vertex -38.4297 -10 -107.617
    endloop
  endfacet
  facet normal 0 -1 0
    outer loop
      vertex -38.4297 -10 -107.617
      vertex -37.0369 -10 -108.266
      vertex -38.3846 -10 -107.508
    endloop
  endfacet
  facet normal 0 -1 0
    outer loop
      vertex -37.0369 -10 -108.266
      vertex -36.9406 -10 -108.034
      vertex -38.3846 -10 -107.508
    endloop
  endfacet
  facet normal 0 -1 0
    outer loop
      vertex -38.3846 -10 -107.508
      vertex -36.9406 -10 -108.034
      vertex -38.3492 -10 -107.396
    endloop
  endfacet
  facet normal 0 -1 0
    outer loop
      vertex -36.9406 -10 -108.034
      vertex -36.8648 -10 -107.794
      vertex -38.3492 -10 -107.396
    endloop
  endfacet
  facet normal 0 -1 0
    outer loop
      vertex -38.3492 -10 -107.396
      vertex -36.8648 -10 -107.794
      vertex -38.3237 -10 -107.281
    endloop
  endfacet
  facet normal 0 -1 0
    outer loop
      vertex -36.8648 -10 -107.794
      vertex -36.8103 -10 -107.548
      vertex -38.3237 -10 -107.281
    endloop
  endfacet
  facet normal 0 -1 0
    outer loop
      vertex -38.3237 -10 -107.281
      vertex -36.8103 -10 -107.548
      vertex -38.3084 -10 -107.164
    endloop
  endfacet
  facet normal 0 -1 0
    outer loop
      vertex -36.8103 -10 -107.548
      vertex -36.7774 -10 -107.298
      vertex -38.3084 -10 -107.164
    endloop
  endfacet
  facet normal 0 -1 0
    outer loop
      vertex -38.3084 -10 -107.164
      vertex -36.7774 -10 -107.298
      vertex -38.3032 -10 -107.046
    endloop
  endfacet
  facet normal 0 -1 0
    outer loop
      vertex -36.7774 -10 -107.298
      vertex -36.7665 -10 -107.046
      vertex -38.3032 -10 -107.046
    endloop
  endfacet
  facet normal 0 -1 0
    outer loop
      vertex -38.3032 -10 -107.046
      vertex -36.7665 -10 -107.046
      vertex -38.3084 -10 -106.929
    endloop
  endfacet
  facet normal 0 -1 0
    outer loop
      vertex -36.7665 -10 -107.046
      vertex -36.7774 -10 -106.795
      vertex -38.3084 -10 -106.929
    endloop
  endfacet
  facet normal 0 -1 0
    outer loop
      vertex -38.3084 -10 -106.929
      vertex -36.7774 -10 -106.795
      vertex -38.3237 -10 -106.812
    endloop
  endfacet
  facet normal 0 -1 0
    outer loop
      vertex -36.7774 -10 -106.795
      vertex -36.8103 -10 -106.545
      vertex -38.3237 -10 -106.812
    endloop
  endfacet
  facet normal 0 -1 0
    outer loop
      vertex -38.3237 -10 -106.812
      vertex -36.8103 -10 -106.545
      vertex -38.3492 -10 -106.697
    endloop
  endfacet
  facet normal 0 -1 0
    outer loop
      vertex -36.8103 -10 -106.545
      vertex -36.8648 -10 -106.299
      vertex -38.3492 -10 -106.697
    endloop
  endfacet
  facet normal 0 -1 0
    outer loop
      vertex -38.3492 -10 -106.697
      vertex -36.8648 -10 -106.299
      vertex -38.3846 -10 -106.585
    endloop
  endfacet
  facet normal 0 -1 0
    outer loop
      vertex -36.8648 -10 -106.299
      vertex -36.9406 -10 -106.059
      vertex -38.3846 -10 -106.585
    endloop
  endfacet
  facet normal 0 -1 0
    outer loop
      vertex -38.3846 -10 -106.585
      vertex -36.9406 -10 -106.059
      vertex -38.4297 -10 -106.476
    endloop
  endfacet
  facet normal 0 -1 0
    outer loop
      vertex -36.9406 -10 -106.059
      vertex -37.0369 -10 -105.826
      vertex -38.4297 -10 -106.476
    endloop
  endfacet
  facet normal 0 -1 0
    outer loop
      vertex -38.4297 -10 -106.476
      vertex -37.0369 -10 -105.826
      vertex -38.4841 -10 -106.371
    endloop
  endfacet
  facet normal 0 -1 0
    outer loop
      vertex -37.0369 -10 -105.826
      vertex -37.1532 -10 -105.603
      vertex -38.4841 -10 -106.371
    endloop
  endfacet
  facet normal 0 -1 0
    outer loop
      vertex -38.4841 -10 -106.371
      vertex -37.1532 -10 -105.603
      vertex -38.5474 -10 -106.272
    endloop
  endfacet
  facet normal 0 -1 0
    outer loop
      vertex -37.1532 -10 -105.603
      vertex -37.2885 -10 -105.391
      vertex -38.5474 -10 -106.272
    endloop
  endfacet
  facet normal 0 -1 0
    outer loop
      vertex -38.5474 -10 -106.272
      vertex -37.2885 -10 -105.391
      vertex -38.6191 -10 -106.179
    endloop
  endfacet
  facet normal 0 -1 0
    outer loop
      vertex -37.2885 -10 -105.391
      vertex -37.4418 -10 -105.191
      vertex -38.6191 -10 -106.179
    endloop
  endfacet
  facet normal 0 -1 0
    outer loop
      vertex -38.6191 -10 -106.179
      vertex -37.4418 -10 -105.191
      vertex -38.6986 -10 -106.092
    endloop
  endfacet
  facet normal 0 -1 0
    outer loop
      vertex -37.4418 -10 -105.191
      vertex -37.612 -10 -105.005
      vertex -38.6986 -10 -106.092
    endloop
  endfacet
  facet normal 0 -1 0
    outer loop
      vertex -38.6986 -10 -106.092
      vertex -37.612 -10 -105.005
      vertex -38.7855 -10 -106.012
    endloop
  endfacet
  facet normal 0 -1 0
    outer loop
      vertex -37.612 -10 -105.005
      vertex -37.7976 -10 -104.835
      vertex -38.7855 -10 -106.012
    endloop
  endfacet
  facet normal 0 -1 0
    outer loop
      vertex -38.7855 -10 -106.012
      vertex -37.7976 -10 -104.835
      vertex -38.8789 -10 -105.941
    endloop
  endfacet
  facet normal 0 -1 0
    outer loop
      vertex -37.7976 -10 -104.835
      vertex -37.9974 -10 -104.682
      vertex -38.8789 -10 -105.941
    endloop
  endfacet
  facet normal 0 -1 0
    outer loop
      vertex -38.8789 -10 -105.941
      vertex -37.9974 -10 -104.682
      vertex -38.9782 -10 -105.877
    endloop
  endfacet
  facet normal 0 -1 0
    outer loop
      vertex -37.9974 -10 -104.682
      vertex -38.2098 -10 -104.546
      vertex -38.9782 -10 -105.877
    endloop
  endfacet
  facet normal 0 -1 0
    outer loop
      vertex -38.9782 -10 -105.877
      vertex -38.2098 -10 -104.546
      vertex -39.0827 -10 -105.823
    endloop
  endfacet
  facet normal 0 -1 0
    outer loop
      vertex -38.2098 -10 -104.546
      vertex -38.4332 -10 -104.43
      vertex -39.0827 -10 -105.823
    endloop
  endfacet
  facet normal 0 -1 0
    outer loop
      vertex -39.0827 -10 -105.823
      vertex -38.4332 -10 -104.43
      vertex -39.1915 -10 -105.778
    endloop
  endfacet
  facet normal 0 -1 0
    outer loop
      vertex -38.4332 -10 -104.43
      vertex -38.6659 -10 -104.334
      vertex -39.1915 -10 -105.778
    endloop
  endfacet
  facet normal 0 -1 0
    outer loop
      vertex -39.1915 -10 -105.778
      vertex -38.6659 -10 -104.334
      vertex -39.3038 -10 -105.742
    endloop
  endfacet
  facet normal 0 -1 0
    outer loop
      vertex -38.6659 -10 -104.334
      vertex -38.9061 -10 -104.258
      vertex -39.3038 -10 -105.742
    endloop
  endfacet
  facet normal 0 -1 0
    outer loop
      vertex -39.3038 -10 -105.742
      vertex -38.9061 -10 -104.258
      vertex -39.4188 -10 -105.717
    endloop
  endfacet
  facet normal 0 -1 0
    outer loop
      vertex -38.9061 -10 -104.258
      vertex -39.1519 -10 -104.204
      vertex -39.4188 -10 -105.717
    endloop
  endfacet
  facet normal 0 -1 0
    outer loop
      vertex -39.4188 -10 -105.717
      vertex -39.1519 -10 -104.204
      vertex -39.5356 -10 -105.702
    endloop
  endfacet
  facet normal 0 -1 0
    outer loop
      vertex -39.1519 -10 -104.204
      vertex -39.4016 -10 -104.171
      vertex -39.5356 -10 -105.702
    endloop
  endfacet
  facet normal 0 -1 0
    outer loop
      vertex -39.5356 -10 -105.702
      vertex -39.4016 -10 -104.171
      vertex -39.6532 -10 -105.696
    endloop
  endfacet
  facet normal 0 -1 0
    outer loop
      vertex -39.4016 -10 -104.171
      vertex -39.6532 -10 -104.16
      vertex -39.6532 -10 -105.696
    endloop
  endfacet
  facet normal 0 -1 0
    outer loop
      vertex -39.6532 -10 -105.696
      vertex -39.6532 -10 -104.16
      vertex -39.7709 -10 -105.702
    endloop
  endfacet
  facet normal 0 -1 0
    outer loop
      vertex -39.6532 -10 -104.16
      vertex -39.9048 -10 -104.171
      vertex -39.7709 -10 -105.702
    endloop
  endfacet
  facet normal 0 -1 0
    outer loop
      vertex -39.7709 -10 -105.702
      vertex -39.9048 -10 -104.171
      vertex -39.8876 -10 -105.717
    endloop
  endfacet
  facet normal 0 -1 0
    outer loop
      vertex -39.9048 -10 -104.171
      vertex -40.1545 -10 -104.204
      vertex -39.8876 -10 -105.717
    endloop
  endfacet
  facet normal 0 -1 0
    outer loop
      vertex -39.8876 -10 -105.717
      vertex -40.1545 -10 -104.204
      vertex -40.0026 -10 -105.742
    endloop
  endfacet
  facet normal 0 -1 0
    outer loop
      vertex -40.1545 -10 -104.204
      vertex -40.4004 -10 -104.258
      vertex -40.0026 -10 -105.742
    endloop
  endfacet
  facet normal 0 -1 0
    outer loop
      vertex -40.0026 -10 -105.742
      vertex -40.4004 -10 -104.258
      vertex -40.1149 -10 -105.778
    endloop
  endfacet
  facet normal 0 -1 0
    outer loop
      vertex -40.4004 -10 -104.258
      vertex -40.6405 -10 -104.334
      vertex -40.1149 -10 -105.778
    endloop
  endfacet
  facet normal 0 -1 0
    outer loop
      vertex -40.1149 -10 -105.778
      vertex -40.6405 -10 -104.334
      vertex -40.2238 -10 -105.823
    endloop
  endfacet
  facet normal 0 -1 0
    outer loop
      vertex -40.6405 -10 -104.334
      vertex -40.8732 -10 -104.43
      vertex -40.2238 -10 -105.823
    endloop
  endfacet
  facet normal 0 -1 0
    outer loop
      vertex -40.2238 -10 -105.823
      vertex -40.8732 -10 -104.43
      vertex -40.3282 -10 -105.877
    endloop
  endfacet
  facet normal 0 -1 0
    outer loop
      vertex -40.8732 -10 -104.43
      vertex -41.0966 -10 -104.546
      vertex -40.3282 -10 -105.877
    endloop
  endfacet
  facet normal 0 -1 0
    outer loop
      vertex -40.3282 -10 -105.877
      vertex -41.0966 -10 -104.546
      vertex -40.4275 -10 -105.941
    endloop
  endfacet
  facet normal 0 -1 0
    outer loop
      vertex -41.0966 -10 -104.546
      vertex -41.309 -10 -104.682
      vertex -40.4275 -10 -105.941
    endloop
  endfacet
  facet normal 0 -1 0
    outer loop
      vertex -40.4275 -10 -105.941
      vertex -41.309 -10 -104.682
      vertex -40.521 -10 -106.012
    endloop
  endfacet
  facet normal 0 -1 0
    outer loop
      vertex -41.309 -10 -104.682
      vertex -41.5088 -10 -104.835
      vertex -40.521 -10 -106.012
    endloop
  endfacet
  facet normal 0 -1 0
    outer loop
      vertex -40.521 -10 -106.012
      vertex -41.5088 -10 -104.835
      vertex -40.6078 -10 -106.092
    endloop
  endfacet
  facet normal 0 -1 0
    outer loop
      vertex -41.5088 -10 -104.835
      vertex -41.6945 -10 -105.005
      vertex -40.6078 -10 -106.092
    endloop
  endfacet
  facet normal 0 -1 0
    outer loop
      vertex -40.6078 -10 -106.092
      vertex -41.6945 -10 -105.005
      vertex -40.6874 -10 -106.179
    endloop
  endfacet
  facet normal 0 -1 0
    outer loop
      vertex -41.6945 -10 -105.005
      vertex -41.8646 -10 -105.191
      vertex -40.6874 -10 -106.179
    endloop
  endfacet
  facet normal 0 -1 0
    outer loop
      vertex -40.6874 -10 -106.179
      vertex -41.8646 -10 -105.191
      vertex -40.7591 -10 -106.272
    endloop
  endfacet
  facet normal 0 -1 0
    outer loop
      vertex -41.8646 -10 -105.191
      vertex -42.0179 -10 -105.391
      vertex -40.7591 -10 -106.272
    endloop
  endfacet
  facet normal 0 -1 0
    outer loop
      vertex -40.7591 -10 -106.272
      vertex -42.0179 -10 -105.391
      vertex -40.8223 -10 -106.371
    endloop
  endfacet
  facet normal 0 -1 0
    outer loop
      vertex -42.0179 -10 -105.391
      vertex -42.1532 -10 -105.603
      vertex -40.8223 -10 -106.371
    endloop
  endfacet
  facet normal 0 -1 0
    outer loop
      vertex -40.8223 -10 -106.371
      vertex -42.1532 -10 -105.603
      vertex -40.8767 -10 -106.476
    endloop
  endfacet
  facet normal 0 -1 0
    outer loop
      vertex -42.1532 -10 -105.603
      vertex -42.2695 -10 -105.826
      vertex -40.8767 -10 -106.476
    endloop
  endfacet
  facet normal 0 -1 0
    outer loop
      vertex -40.8767 -10 -106.476
      vertex -42.2695 -10 -105.826
      vertex -40.9218 -10 -106.585
    endloop
  endfacet
  facet normal 0 -1 0
    outer loop
      vertex -42.2695 -10 -105.826
      vertex -42.3659 -10 -106.059
      vertex -40.9218 -10 -106.585
    endloop
  endfacet
  facet normal 0 -1 0
    outer loop
      vertex -40.9218 -10 -106.585
      vertex -42.3659 -10 -106.059
      vertex -40.9572 -10 -106.697
    endloop
  endfacet
  facet normal 0 -1 0
    outer loop
      vertex -42.3659 -10 -106.059
      vertex -42.4416 -10 -106.299
      vertex -40.9572 -10 -106.697
    endloop
  endfacet
  facet normal 0 -1 0
    outer loop
      vertex -40.9572 -10 -106.697
      vertex -42.4416 -10 -106.299
      vertex -40.9827 -10 -106.812
    endloop
  endfacet
  facet normal 0 -1 0
    outer loop
      vertex -42.4416 -10 -106.299
      vertex -42.4961 -10 -106.545
      vertex -40.9827 -10 -106.812
    endloop
  endfacet
  facet normal 0 -1 0
    outer loop
      vertex -40.9827 -10 -106.812
      vertex -42.4961 -10 -106.545
      vertex -40.9981 -10 -106.929
    endloop
  endfacet
  facet normal 0 -1 0
    outer loop
      vertex -42.4961 -10 -106.545
      vertex -42.529 -10 -106.795
      vertex -40.9981 -10 -106.929
    endloop
  endfacet
  facet normal 0 -1 0
    outer loop
      vertex -40.9981 -10 -106.929
      vertex -42.529 -10 -106.795
      vertex -41.0032 -10 -107.046
    endloop
  endfacet
  facet normal 0 -1 0
    outer loop
      vertex -42.529 -10 -106.795
      vertex -42.54 -10 -107.046
      vertex -41.0032 -10 -107.046
    endloop
  endfacet
  facet normal 0 -1 0
    outer loop
      vertex -41.0032 -10 -107.046
      vertex -42.54 -10 -107.046
      vertex -40.9981 -10 -107.164
    endloop
  endfacet
  facet normal 0 -1 0
    outer loop
      vertex -42.54 -10 -107.046
      vertex -42.529 -10 -107.298
      vertex -40.9981 -10 -107.164
    endloop
  endfacet
  facet normal 0 -1 0
    outer loop
      vertex -40.9981 -10 -107.164
      vertex -42.529 -10 -107.298
      vertex -40.9827 -10 -107.281
    endloop
  endfacet
  facet normal 0 -1 0
    outer loop
      vertex -42.529 -10 -107.298
      vertex -42.4961 -10 -107.548
      vertex -40.9827 -10 -107.281
    endloop
  endfacet
  facet normal 0 -1 0
    outer loop
      vertex -40.9827 -10 -107.281
      vertex -42.4961 -10 -107.548
      vertex -40.9572 -10 -107.396
    endloop
  endfacet
  facet normal 0 -1 0
    outer loop
      vertex -42.4961 -10 -107.548
      vertex -42.4416 -10 -107.794
      vertex -40.9572 -10 -107.396
    endloop
  endfacet
  facet normal 0 -1 0
    outer loop
      vertex -40.9572 -10 -107.396
      vertex -42.4416 -10 -107.794
      vertex -40.9218 -10 -107.508
    endloop
  endfacet
  facet normal 0 -1 0
    outer loop
      vertex -42.4416 -10 -107.794
      vertex -42.3659 -10 -108.034
      vertex -40.9218 -10 -107.508
    endloop
  endfacet
  facet normal 0 -1 0
    outer loop
      vertex -40.9218 -10 -107.508
      vertex -42.3659 -10 -108.034
      vertex -40.8767 -10 -107.617
    endloop
  endfacet
  facet normal 0 -1 0
    outer loop
      vertex -42.3659 -10 -108.034
      vertex -42.2695 -10 -108.266
      vertex -40.8767 -10 -107.617
    endloop
  endfacet
  facet normal 0 -1 0
    outer loop
      vertex -40.8767 -10 -107.617
      vertex -42.2695 -10 -108.266
      vertex -40.8223 -10 -107.721
    endloop
  endfacet
  facet normal 0 -1 0
    outer loop
      vertex -42.2695 -10 -108.266
      vertex -42.1532 -10 -108.49
      vertex -40.8223 -10 -107.721
    endloop
  endfacet
  facet normal 0 -1 0
    outer loop
      vertex -40.8223 -10 -107.721
      vertex -42.1532 -10 -108.49
      vertex -40.7591 -10 -107.821
    endloop
  endfacet
  facet normal 0 -1 0
    outer loop
      vertex -42.1532 -10 -108.49
      vertex -42.0179 -10 -108.702
      vertex -40.7591 -10 -107.821
    endloop
  endfacet
  facet normal 0 -1 0
    outer loop
      vertex -40.7591 -10 -107.821
      vertex -42.0179 -10 -108.702
      vertex -40.6874 -10 -107.914
    endloop
  endfacet
  facet normal 0 -1 0
    outer loop
      vertex -42.0179 -10 -108.702
      vertex -41.8646 -10 -108.902
      vertex -40.6874 -10 -107.914
    endloop
  endfacet
  facet normal 0 -1 0
    outer loop
      vertex -40.6874 -10 -107.914
      vertex -41.8646 -10 -108.902
      vertex -40.6078 -10 -108.001
    endloop
  endfacet
  facet normal 0 -1 0
    outer loop
      vertex -41.8646 -10 -108.902
      vertex -41.6945 -10 -109.088
      vertex -40.6078 -10 -108.001
    endloop
  endfacet
  facet normal 0 -1 0
    outer loop
      vertex -40.6078 -10 -108.001
      vertex -41.6945 -10 -109.088
      vertex -40.521 -10 -108.081
    endloop
  endfacet
  facet normal 0 -1 0
    outer loop
      vertex -41.6945 -10 -109.088
      vertex -41.5088 -10 -109.258
      vertex -40.521 -10 -108.081
    endloop
  endfacet
  facet normal 0 -1 0
    outer loop
      vertex -40.521 -10 -108.081
      vertex -41.5088 -10 -109.258
      vertex -40.4275 -10 -108.152
    endloop
  endfacet
  facet normal 0 -1 0
    outer loop
      vertex -41.5088 -10 -109.258
      vertex -41.309 -10 -109.411
      vertex -40.4275 -10 -108.152
    endloop
  endfacet
  facet normal 0 -1 0
    outer loop
      vertex -40.4275 -10 -108.152
      vertex -41.309 -10 -109.411
      vertex -40.3282 -10 -108.216
    endloop
  endfacet
  facet normal 0 -1 0
    outer loop
      vertex -41.309 -10 -109.411
      vertex -41.0966 -10 -109.546
      vertex -40.3282 -10 -108.216
    endloop
  endfacet
  facet normal 0 -1 0
    outer loop
      vertex -40.3282 -10 -108.216
      vertex -41.0966 -10 -109.546
      vertex -40.2238 -10 -108.27
    endloop
  endfacet
  facet normal 0 -1 0
    outer loop
      vertex -41.0966 -10 -109.546
      vertex -40.8732 -10 -109.663
      vertex -40.2238 -10 -108.27
    endloop
  endfacet
  facet normal 0 -1 0
    outer loop
      vertex -40.2238 -10 -108.27
      vertex -40.8732 -10 -109.663
      vertex -40.1149 -10 -108.315
    endloop
  endfacet
  facet normal 0 -1 0
    outer loop
      vertex -40.8732 -10 -109.663
      vertex -40.6405 -10 -109.759
      vertex -40.1149 -10 -108.315
    endloop
  endfacet
  facet normal 0 -1 0
    outer loop
      vertex -40.1149 -10 -108.315
      vertex -40.6405 -10 -109.759
      vertex -40.0026 -10 -108.35
    endloop
  endfacet
  facet normal 0 -1 0
    outer loop
      vertex -40.6405 -10 -109.759
      vertex -40.4004 -10 -109.835
      vertex -40.0026 -10 -108.35
    endloop
  endfacet
  facet normal 0 -1 0
    outer loop
      vertex -40.0026 -10 -108.35
      vertex -40.4004 -10 -109.835
      vertex -39.8876 -10 -108.376
    endloop
  endfacet
  facet normal 0 -1 0
    outer loop
      vertex -40.4004 -10 -109.835
      vertex -40.1545 -10 -109.889
      vertex -39.8876 -10 -108.376
    endloop
  endfacet
  facet normal 0 -1 0
    outer loop
      vertex -39.8876 -10 -108.376
      vertex -40.1545 -10 -109.889
      vertex -39.7709 -10 -108.391
    endloop
  endfacet
  facet normal 0 -1 0
    outer loop
      vertex -40.1545 -10 -109.889
      vertex -39.9048 -10 -109.922
      vertex -39.7709 -10 -108.391
    endloop
  endfacet
  facet normal 0 -1 0
    outer loop
      vertex -39.7709 -10 -108.391
      vertex -39.9048 -10 -109.922
      vertex -39.6532 -10 -108.396
    endloop
  endfacet
  facet normal 0 -1 0
    outer loop
      vertex -39.9048 -10 -109.922
      vertex -39.6532 -10 -109.933
      vertex -39.6532 -10 -108.396
    endloop
  endfacet
  facet normal 0 -1 0
    outer loop
      vertex -39.6532 -10 -108.396
      vertex -39.6532 -10 -109.933
      vertex -39.5356 -10 -108.391
    endloop
  endfacet
  facet normal 0 -1 0
    outer loop
      vertex -39.6532 -10 -109.933
      vertex -39.4016 -10 -109.922
      vertex -39.5356 -10 -108.391
    endloop
  endfacet
  facet normal 0 -1 0
    outer loop
      vertex -39.5356 -10 -108.391
      vertex -39.4016 -10 -109.922
      vertex -39.4188 -10 -108.376
    endloop
  endfacet
  facet normal 0 -1 0
    outer loop
      vertex -39.4016 -10 -109.922
      vertex -39.1519 -10 -109.889
      vertex -39.4188 -10 -108.376
    endloop
  endfacet
  facet normal 0 -1 0
    outer loop
      vertex -39.4188 -10 -108.376
      vertex -39.1519 -10 -109.889
      vertex -39.3038 -10 -108.35
    endloop
  endfacet
  facet normal 0 -1 0
    outer loop
      vertex -39.1519 -10 -109.889
      vertex -38.9061 -10 -109.835
      vertex -39.3038 -10 -108.35
    endloop
  endfacet
  facet normal 0 -1 0
    outer loop
      vertex -39.3038 -10 -108.35
      vertex -38.9061 -10 -109.835
      vertex -39.1915 -10 -108.315
    endloop
  endfacet
  facet normal 0 -1 0
    outer loop
      vertex -38.9061 -10 -109.835
      vertex -38.6659 -10 -109.759
      vertex -39.1915 -10 -108.315
    endloop
  endfacet
  facet normal 0 -1 0
    outer loop
      vertex -39.1915 -10 -108.315
      vertex -38.6659 -10 -109.759
      vertex -39.0827 -10 -108.27
    endloop
  endfacet
  facet normal 0 -1 0
    outer loop
      vertex -38.6659 -10 -109.759
      vertex -38.4332 -10 -109.663
      vertex -39.0827 -10 -108.27
    endloop
  endfacet
  facet normal 0 -1 0
    outer loop
      vertex -39.0827 -10 -108.27
      vertex -38.4332 -10 -109.663
      vertex -38.9782 -10 -108.216
    endloop
  endfacet
  facet normal 0 -1 0
    outer loop
      vertex -38.4332 -10 -109.663
      vertex -38.2098 -10 -109.546
      vertex -38.9782 -10 -108.216
    endloop
  endfacet
  facet normal 0 -1 0
    outer loop
      vertex -38.9782 -10 -108.216
      vertex -38.2098 -10 -109.546
      vertex -38.8789 -10 -108.152
    endloop
  endfacet
  facet normal 0 -1 0
    outer loop
      vertex -38.2098 -10 -109.546
      vertex -37.9974 -10 -109.411
      vertex -38.8789 -10 -108.152
    endloop
  endfacet
  facet normal 0 -1 0
    outer loop
      vertex -38.8789 -10 -108.152
      vertex -37.9974 -10 -109.411
      vertex -38.7855 -10 -108.081
    endloop
  endfacet
  facet normal 0 -1 0
    outer loop
      vertex -37.9974 -10 -109.411
      vertex -37.7976 -10 -109.258
      vertex -38.7855 -10 -108.081
    endloop
  endfacet
  facet normal 0 -1 0
    outer loop
      vertex -38.7855 -10 -108.081
      vertex -37.7976 -10 -109.258
      vertex -38.6986 -10 -108.001
    endloop
  endfacet
  facet normal 0 -1 0
    outer loop
      vertex -37.7976 -10 -109.258
      vertex -37.612 -10 -109.088
      vertex -38.6986 -10 -108.001
    endloop
  endfacet
  facet normal 0 -1 0
    outer loop
      vertex -38.6986 -10 -108.001
      vertex -37.612 -10 -109.088
      vertex -38.6191 -10 -107.914
    endloop
  endfacet
  facet normal 0 -1 0
    outer loop
      vertex -37.612 -10 -109.088
      vertex -37.4418 -10 -108.902
      vertex -38.6191 -10 -107.914
    endloop
  endfacet
  facet normal 0 -1 0
    outer loop
      vertex -38.6191 -10 -107.914
      vertex -37.4418 -10 -108.902
      vertex -38.5474 -10 -107.821
    endloop
  endfacet
  facet normal 0 -1 0
    outer loop
      vertex -37.4418 -10 -108.902
      vertex -37.2885 -10 -108.702
      vertex -38.5474 -10 -107.821
    endloop
  endfacet
  facet normal 0 -1 0
    outer loop
      vertex -38.5474 -10 -107.821
      vertex -37.2885 -10 -108.702
      vertex -38.4841 -10 -107.721
    endloop
  endfacet
  facet normal 0 -1 0
    outer loop
      vertex -37.2885 -10 -108.702
      vertex -37.1532 -10 -108.49
      vertex -38.4841 -10 -107.721
    endloop
  endfacet
  facet normal -0.0435882 0 -0.99905
    outer loop
      vertex -39.6532 -10 -105.696
      vertex -39.6532 0 -105.696
      vertex -39.5356 -10 -105.702
    endloop
  endfacet
  facet normal -0.0435882 0 -0.99905
    outer loop
      vertex -39.6532 0 -105.696
      vertex -39.5356 0 -105.702
      vertex -39.5356 -10 -105.702
    endloop
  endfacet
  facet normal -0.13051 0 -0.991447
    outer loop
      vertex -39.5356 -10 -105.702
      vertex -39.5356 0 -105.702
      vertex -39.4188 -10 -105.717
    endloop
  endfacet
  facet normal -0.13051 0 -0.991447
    outer loop
      vertex -39.5356 0 -105.702
      vertex -39.4188 0 -105.717
      vertex -39.4188 -10 -105.717
    endloop
  endfacet
  facet normal -0.216482 0 -0.976287
    outer loop
      vertex -39.4188 -10 -105.717
      vertex -39.4188 0 -105.717
      vertex -39.3038 -10 -105.742
    endloop
  endfacet
  facet normal -0.216482 0 -0.976287
    outer loop
      vertex -39.4188 0 -105.717
      vertex -39.3038 0 -105.742
      vertex -39.3038 -10 -105.742
    endloop
  endfacet
  facet normal -0.300689 0 -0.953722
    outer loop
      vertex -39.3038 -10 -105.742
      vertex -39.3038 0 -105.742
      vertex -39.1915 -10 -105.778
    endloop
  endfacet
  facet normal -0.300689 0 -0.953722
    outer loop
      vertex -39.3038 0 -105.742
      vertex -39.1915 0 -105.778
      vertex -39.1915 -10 -105.778
    endloop
  endfacet
  facet normal -0.382674 0 -0.923883
    outer loop
      vertex -39.1915 -10 -105.778
      vertex -39.1915 0 -105.778
      vertex -39.0827 -10 -105.823
    endloop
  endfacet
  facet normal -0.382674 0 -0.923883
    outer loop
      vertex -39.1915 0 -105.778
      vertex -39.0827 0 -105.823
      vertex -39.0827 -10 -105.823
    endloop
  endfacet
  facet normal -0.461755 0 -0.887007
    outer loop
      vertex -39.0827 -10 -105.823
      vertex -39.0827 0 -105.823
      vertex -38.9782 -10 -105.877
    endloop
  endfacet
  facet normal -0.461755 0 -0.887007
    outer loop
      vertex -39.0827 0 -105.823
      vertex -38.9782 0 -105.877
      vertex -38.9782 -10 -105.877
    endloop
  endfacet
  facet normal -0.537295 0 -0.843394
    outer loop
      vertex -38.9782 -10 -105.877
      vertex -38.9782 0 -105.877
      vertex -38.8789 -10 -105.941
    endloop
  endfacet
  facet normal -0.537295 0 -0.843394
    outer loop
      vertex -38.9782 0 -105.877
      vertex -38.8789 0 -105.941
      vertex -38.8789 -10 -105.941
    endloop
  endfacet
  facet normal -0.608775 0 -0.793343
    outer loop
      vertex -38.8789 -10 -105.941
      vertex -38.8789 0 -105.941
      vertex -38.7855 -10 -106.012
    endloop
  endfacet
  facet normal -0.608775 0 -0.793343
    outer loop
      vertex -38.8789 0 -105.941
      vertex -38.7855 0 -106.012
      vertex -38.7855 -10 -106.012
    endloop
  endfacet
  facet normal -0.675577 0 -0.737289
    outer loop
      vertex -38.7855 -10 -106.012
      vertex -38.7855 0 -106.012
      vertex -38.6986 -10 -106.092
    endloop
  endfacet
  facet normal -0.675577 0 -0.737289
    outer loop
      vertex -38.7855 0 -106.012
      vertex -38.6986 0 -106.092
      vertex -38.6986 -10 -106.092
    endloop
  endfacet
  facet normal -0.737275 0 -0.675593
    outer loop
      vertex -38.6986 -10 -106.092
      vertex -38.6986 0 -106.092
      vertex -38.6191 -10 -106.179
    endloop
  endfacet
  facet normal -0.737275 0 -0.675593
    outer loop
      vertex -38.6986 0 -106.092
      vertex -38.6191 0 -106.179
      vertex -38.6191 -10 -106.179
    endloop
  endfacet
  facet normal -0.793355 0 -0.60876
    outer loop
      vertex -38.6191 -10 -106.179
      vertex -38.6191 0 -106.179
      vertex -38.5474 -10 -106.272
    endloop
  endfacet
  facet normal -0.793355 0 -0.60876
    outer loop
      vertex -38.6191 0 -106.179
      vertex -38.5474 0 -106.272
      vertex -38.5474 -10 -106.272
    endloop
  endfacet
  facet normal -0.843404 0 -0.537281
    outer loop
      vertex -38.5474 -10 -106.272
      vertex -38.5474 0 -106.272
      vertex -38.4841 -10 -106.371
    endloop
  endfacet
  facet normal -0.843404 0 -0.537281
    outer loop
      vertex -38.5474 0 -106.272
      vertex -38.4841 0 -106.371
      vertex -38.4841 -10 -106.371
    endloop
  endfacet
  facet normal -0.887007 0 -0.461755
    outer loop
      vertex -38.4841 -10 -106.371
      vertex -38.4841 0 -106.371
      vertex -38.4297 -10 -106.476
    endloop
  endfacet
  facet normal -0.887007 0 -0.461755
    outer loop
      vertex -38.4841 0 -106.371
      vertex -38.4297 0 -106.476
      vertex -38.4297 -10 -106.476
    endloop
  endfacet
  facet normal -0.923883 0 -0.382674
    outer loop
      vertex -38.4297 -10 -106.476
      vertex -38.4297 0 -106.476
      vertex -38.3846 -10 -106.585
    endloop
  endfacet
  facet normal -0.923883 0 -0.382674
    outer loop
      vertex -38.4297 0 -106.476
      vertex -38.3846 0 -106.585
      vertex -38.3846 -10 -106.585
    endloop
  endfacet
  facet normal -0.95371 0 -0.300727
    outer loop
      vertex -38.3846 -10 -106.585
      vertex -38.3846 0 -106.585
      vertex -38.3492 -10 -106.697
    endloop
  endfacet
  facet normal -0.95371 0 -0.300727
    outer loop
      vertex -38.3846 0 -106.585
      vertex -38.3492 0 -106.697
      vertex -38.3492 -10 -106.697
    endloop
  endfacet
  facet normal -0.976302 0 -0.216415
    outer loop
      vertex -38.3492 -10 -106.697
      vertex -38.3492 0 -106.697
      vertex -38.3237 -10 -106.812
    endloop
  endfacet
  facet normal -0.976302 0 -0.216415
    outer loop
      vertex -38.3492 0 -106.697
      vertex -38.3237 0 -106.812
      vertex -38.3237 -10 -106.812
    endloop
  endfacet
  facet normal -0.991442 0 -0.130549
    outer loop
      vertex -38.3237 -10 -106.812
      vertex -38.3237 0 -106.812
      vertex -38.3084 -10 -106.929
    endloop
  endfacet
  facet normal -0.991442 0 -0.130549
    outer loop
      vertex -38.3237 0 -106.812
      vertex -38.3084 0 -106.929
      vertex -38.3084 -10 -106.929
    endloop
  endfacet
  facet normal -0.999048 0 -0.043617
    outer loop
      vertex -38.3084 -10 -106.929
      vertex -38.3084 0 -106.929
      vertex -38.3032 -10 -107.046
    endloop
  endfacet
  facet normal -0.999048 0 -0.043617
    outer loop
      vertex -38.3084 0 -106.929
      vertex -38.3032 0 -107.046
      vertex -38.3032 -10 -107.046
    endloop
  endfacet
  facet normal -0.999048 0 0.0436198
    outer loop
      vertex -38.3032 -10 -107.046
      vertex -38.3032 0 -107.046
      vertex -38.3084 -10 -107.164
    endloop
  endfacet
  facet normal -0.999048 0 0.0436198
    outer loop
      vertex -38.3032 0 -107.046
      vertex -38.3084 0 -107.164
      vertex -38.3084 -10 -107.164
    endloop
  endfacet
  facet normal -0.991443 0 0.130541
    outer loop
      vertex -38.3084 -10 -107.164
      vertex -38.3084 0 -107.164
      vertex -38.3237 -10 -107.281
    endloop
  endfacet
  facet normal -0.991443 0 0.130541
    outer loop
      vertex -38.3084 0 -107.164
      vertex -38.3237 0 -107.281
      vertex -38.3237 -10 -107.281
    endloop
  endfacet
  facet normal -0.976299 0 0.216428
    outer loop
      vertex -38.3237 -10 -107.281
      vertex -38.3237 0 -107.281
      vertex -38.3492 -10 -107.396
    endloop
  endfacet
  facet normal -0.976299 0 0.216428
    outer loop
      vertex -38.3237 0 -107.281
      vertex -38.3492 0 -107.396
      vertex -38.3492 -10 -107.396
    endloop
  endfacet
  facet normal -0.953716 0 0.300709
    outer loop
      vertex -38.3492 -10 -107.396
      vertex -38.3492 0 -107.396
      vertex -38.3846 -10 -107.508
    endloop
  endfacet
  facet normal -0.953716 0 0.300709
    outer loop
      vertex -38.3492 0 -107.396
      vertex -38.3846 0 -107.508
      vertex -38.3846 -10 -107.508
    endloop
  endfacet
  facet normal -0.923874 0 0.382696
    outer loop
      vertex -38.3846 -10 -107.508
      vertex -38.3846 0 -107.508
      vertex -38.4297 -10 -107.617
    endloop
  endfacet
  facet normal -0.923874 0 0.382696
    outer loop
      vertex -38.3846 0 -107.508
      vertex -38.4297 0 -107.617
      vertex -38.4297 -10 -107.617
    endloop
  endfacet
  facet normal -0.887021 0 0.461729
    outer loop
      vertex -38.4297 -10 -107.617
      vertex -38.4297 0 -107.617
      vertex -38.4841 -10 -107.721
    endloop
  endfacet
  facet normal -0.887021 0 0.461729
    outer loop
      vertex -38.4297 0 -107.617
      vertex -38.4841 0 -107.721
      vertex -38.4841 -10 -107.721
    endloop
  endfacet
  facet normal -0.843385 0 0.537309
    outer loop
      vertex -38.4841 -10 -107.721
      vertex -38.4841 0 -107.721
      vertex -38.5474 -10 -107.821
    endloop
  endfacet
  facet normal -0.843385 0 0.537309
    outer loop
      vertex -38.4841 0 -107.721
      vertex -38.5474 0 -107.821
      vertex -38.5474 -10 -107.821
    endloop
  endfacet
  facet normal -0.793355 0 0.60876
    outer loop
      vertex -38.5474 -10 -107.821
      vertex -38.5474 0 -107.821
      vertex -38.6191 -10 -107.914
    endloop
  endfacet
  facet normal -0.793355 0 0.60876
    outer loop
      vertex -38.5474 0 -107.821
      vertex -38.6191 0 -107.914
      vertex -38.6191 -10 -107.914
    endloop
  endfacet
  facet normal -0.737275 0 0.675593
    outer loop
      vertex -38.6191 -10 -107.914
      vertex -38.6191 0 -107.914
      vertex -38.6986 -10 -108.001
    endloop
  endfacet
  facet normal -0.737275 0 0.675593
    outer loop
      vertex -38.6191 0 -107.914
      vertex -38.6986 0 -108.001
      vertex -38.6986 -10 -108.001
    endloop
  endfacet
  facet normal -0.675577 0 0.737289
    outer loop
      vertex -38.6986 -10 -108.001
      vertex -38.6986 0 -108.001
      vertex -38.7855 -10 -108.081
    endloop
  endfacet
  facet normal -0.675577 0 0.737289
    outer loop
      vertex -38.6986 0 -108.001
      vertex -38.7855 0 -108.081
      vertex -38.7855 -10 -108.081
    endloop
  endfacet
  facet normal -0.608775 0 0.793343
    outer loop
      vertex -38.7855 -10 -108.081
      vertex -38.7855 0 -108.081
      vertex -38.8789 -10 -108.152
    endloop
  endfacet
  facet normal -0.608775 0 0.793343
    outer loop
      vertex -38.7855 0 -108.081
      vertex -38.8789 0 -108.152
      vertex -38.8789 -10 -108.152
    endloop
  endfacet
  facet normal -0.537295 0 0.843394
    outer loop
      vertex -38.8789 -10 -108.152
      vertex -38.8789 0 -108.152
      vertex -38.9782 -10 -108.216
    endloop
  endfacet
  facet normal -0.537295 0 0.843394
    outer loop
      vertex -38.8789 0 -108.152
      vertex -38.9782 0 -108.216
      vertex -38.9782 -10 -108.216
    endloop
  endfacet
  facet normal -0.461755 0 0.887007
    outer loop
      vertex -38.9782 -10 -108.216
      vertex -38.9782 0 -108.216
      vertex -39.0827 -10 -108.27
    endloop
  endfacet
  facet normal -0.461755 0 0.887007
    outer loop
      vertex -38.9782 0 -108.216
      vertex -39.0827 0 -108.27
      vertex -39.0827 -10 -108.27
    endloop
  endfacet
  facet normal -0.382674 0 0.923883
    outer loop
      vertex -39.0827 -10 -108.27
      vertex -39.0827 0 -108.27
      vertex -39.1915 -10 -108.315
    endloop
  endfacet
  facet normal -0.382674 0 0.923883
    outer loop
      vertex -39.0827 0 -108.27
      vertex -39.1915 0 -108.315
      vertex -39.1915 -10 -108.315
    endloop
  endfacet
  facet normal -0.300689 0 0.953722
    outer loop
      vertex -39.1915 -10 -108.315
      vertex -39.1915 0 -108.315
      vertex -39.3038 -10 -108.35
    endloop
  endfacet
  facet normal -0.300689 0 0.953722
    outer loop
      vertex -39.1915 0 -108.315
      vertex -39.3038 0 -108.35
      vertex -39.3038 -10 -108.35
    endloop
  endfacet
  facet normal -0.216482 0 0.976287
    outer loop
      vertex -39.3038 -10 -108.35
      vertex -39.3038 0 -108.35
      vertex -39.4188 -10 -108.376
    endloop
  endfacet
  facet normal -0.216482 0 0.976287
    outer loop
      vertex -39.3038 0 -108.35
      vertex -39.4188 0 -108.376
      vertex -39.4188 -10 -108.376
    endloop
  endfacet
  facet normal -0.13051 0 0.991447
    outer loop
      vertex -39.4188 -10 -108.376
      vertex -39.4188 0 -108.376
      vertex -39.5356 -10 -108.391
    endloop
  endfacet
  facet normal -0.13051 0 0.991447
    outer loop
      vertex -39.4188 0 -108.376
      vertex -39.5356 0 -108.391
      vertex -39.5356 -10 -108.391
    endloop
  endfacet
  facet normal -0.0436514 0 0.999047
    outer loop
      vertex -39.5356 -10 -108.391
      vertex -39.5356 0 -108.391
      vertex -39.6532 -10 -108.396
    endloop
  endfacet
  facet normal -0.0436514 0 0.999047
    outer loop
      vertex -39.5356 0 -108.391
      vertex -39.6532 0 -108.396
      vertex -39.6532 -10 -108.396
    endloop
  endfacet
  facet normal 0.0436514 0 0.999047
    outer loop
      vertex -39.6532 -10 -108.396
      vertex -39.6532 0 -108.396
      vertex -39.7709 -10 -108.391
    endloop
  endfacet
  facet normal 0.0436514 0 0.999047
    outer loop
      vertex -39.6532 0 -108.396
      vertex -39.7709 0 -108.391
      vertex -39.7709 -10 -108.391
    endloop
  endfacet
  facet normal 0.13051 0 0.991447
    outer loop
      vertex -39.7709 -10 -108.391
      vertex -39.7709 0 -108.391
      vertex -39.8876 -10 -108.376
    endloop
  endfacet
  facet normal 0.13051 0 0.991447
    outer loop
      vertex -39.7709 0 -108.391
      vertex -39.8876 0 -108.376
      vertex -39.8876 -10 -108.376
    endloop
  endfacet
  facet normal 0.216482 0 0.976287
    outer loop
      vertex -39.8876 -10 -108.376
      vertex -39.8876 0 -108.376
      vertex -40.0026 -10 -108.35
    endloop
  endfacet
  facet normal 0.216482 0 0.976287
    outer loop
      vertex -39.8876 0 -108.376
      vertex -40.0026 0 -108.35
      vertex -40.0026 -10 -108.35
    endloop
  endfacet
  facet normal 0.300689 0 0.953722
    outer loop
      vertex -40.0026 -10 -108.35
      vertex -40.0026 0 -108.35
      vertex -40.1149 -10 -108.315
    endloop
  endfacet
  facet normal 0.300689 0 0.953722
    outer loop
      vertex -40.0026 0 -108.35
      vertex -40.1149 0 -108.315
      vertex -40.1149 -10 -108.315
    endloop
  endfacet
  facet normal 0.382674 0 0.923883
    outer loop
      vertex -40.1149 -10 -108.315
      vertex -40.1149 0 -108.315
      vertex -40.2238 -10 -108.27
    endloop
  endfacet
  facet normal 0.382674 0 0.923883
    outer loop
      vertex -40.1149 0 -108.315
      vertex -40.2238 0 -108.27
      vertex -40.2238 -10 -108.27
    endloop
  endfacet
  facet normal 0.461755 0 0.887007
    outer loop
      vertex -40.2238 -10 -108.27
      vertex -40.2238 0 -108.27
      vertex -40.3282 -10 -108.216
    endloop
  endfacet
  facet normal 0.461755 0 0.887007
    outer loop
      vertex -40.2238 0 -108.27
      vertex -40.3282 0 -108.216
      vertex -40.3282 -10 -108.216
    endloop
  endfacet
  facet normal 0.537295 0 0.843394
    outer loop
      vertex -40.3282 -10 -108.216
      vertex -40.3282 0 -108.216
      vertex -40.4275 -10 -108.152
    endloop
  endfacet
  facet normal 0.537295 0 0.843394
    outer loop
      vertex -40.3282 0 -108.216
      vertex -40.4275 0 -108.152
      vertex -40.4275 -10 -108.152
    endloop
  endfacet
  facet normal 0.60876 0 0.793355
    outer loop
      vertex -40.4275 -10 -108.152
      vertex -40.4275 0 -108.152
      vertex -40.521 -10 -108.081
    endloop
  endfacet
  facet normal 0.60876 0 0.793355
    outer loop
      vertex -40.4275 0 -108.152
      vertex -40.521 0 -108.081
      vertex -40.521 -10 -108.081
    endloop
  endfacet
  facet normal 0.675593 0 0.737275
    outer loop
      vertex -40.521 -10 -108.081
      vertex -40.521 0 -108.081
      vertex -40.6078 -10 -108.001
    endloop
  endfacet
  facet normal 0.675593 0 0.737275
    outer loop
      vertex -40.521 0 -108.081
      vertex -40.6078 0 -108.001
      vertex -40.6078 -10 -108.001
    endloop
  endfacet
  facet normal 0.737275 0 0.675593
    outer loop
      vertex -40.6078 -10 -108.001
      vertex -40.6078 0 -108.001
      vertex -40.6874 -10 -107.914
    endloop
  endfacet
  facet normal 0.737275 0 0.675593
    outer loop
      vertex -40.6078 0 -108.001
      vertex -40.6874 0 -107.914
      vertex -40.6874 -10 -107.914
    endloop
  endfacet
  facet normal 0.793355 0 0.60876
    outer loop
      vertex -40.6874 -10 -107.914
      vertex -40.6874 0 -107.914
      vertex -40.7591 -10 -107.821
    endloop
  endfacet
  facet normal 0.793355 0 0.60876
    outer loop
      vertex -40.6874 0 -107.914
      vertex -40.7591 0 -107.821
      vertex -40.7591 -10 -107.821
    endloop
  endfacet
  facet normal 0.843385 0 0.537309
    outer loop
      vertex -40.7591 -10 -107.821
      vertex -40.7591 0 -107.821
      vertex -40.8223 -10 -107.721
    endloop
  endfacet
  facet normal 0.843385 0 0.537309
    outer loop
      vertex -40.7591 0 -107.821
      vertex -40.8223 0 -107.721
      vertex -40.8223 -10 -107.721
    endloop
  endfacet
  facet normal 0.887021 0 0.461729
    outer loop
      vertex -40.8223 -10 -107.721
      vertex -40.8223 0 -107.721
      vertex -40.8767 -10 -107.617
    endloop
  endfacet
  facet normal 0.887021 0 0.461729
    outer loop
      vertex -40.8223 0 -107.721
      vertex -40.8767 0 -107.617
      vertex -40.8767 -10 -107.617
    endloop
  endfacet
  facet normal 0.923874 0 0.382696
    outer loop
      vertex -40.8767 -10 -107.617
      vertex -40.8767 0 -107.617
      vertex -40.9218 -10 -107.508
    endloop
  endfacet
  facet normal 0.923874 0 0.382696
    outer loop
      vertex -40.8767 0 -107.617
      vertex -40.9218 0 -107.508
      vertex -40.9218 -10 -107.508
    endloop
  endfacet
  facet normal 0.953716 0 0.300709
    outer loop
      vertex -40.9218 -10 -107.508
      vertex -40.9218 0 -107.508
      vertex -40.9572 -10 -107.396
    endloop
  endfacet
  facet normal 0.953716 0 0.300709
    outer loop
      vertex -40.9218 0 -107.508
      vertex -40.9572 0 -107.396
      vertex -40.9572 -10 -107.396
    endloop
  endfacet
  facet normal 0.976299 0 0.216428
    outer loop
      vertex -40.9572 -10 -107.396
      vertex -40.9572 0 -107.396
      vertex -40.9827 -10 -107.281
    endloop
  endfacet
  facet normal 0.976299 0 0.216428
    outer loop
      vertex -40.9572 0 -107.396
      vertex -40.9827 0 -107.281
      vertex -40.9827 -10 -107.281
    endloop
  endfacet
  facet normal 0.991443 0 0.130541
    outer loop
      vertex -40.9827 -10 -107.281
      vertex -40.9827 0 -107.281
      vertex -40.9981 -10 -107.164
    endloop
  endfacet
  facet normal 0.991443 0 0.130541
    outer loop
      vertex -40.9827 0 -107.281
      vertex -40.9981 0 -107.164
      vertex -40.9981 -10 -107.164
    endloop
  endfacet
  facet normal 0.999048 0 0.0436198
    outer loop
      vertex -40.9981 -10 -107.164
      vertex -40.9981 0 -107.164
      vertex -41.0032 -10 -107.046
    endloop
  endfacet
  facet normal 0.999048 0 0.0436198
    outer loop
      vertex -40.9981 0 -107.164
      vertex -41.0032 0 -107.046
      vertex -41.0032 -10 -107.046
    endloop
  endfacet
  facet normal 0.999048 0 -0.043617
    outer loop
      vertex -41.0032 -10 -107.046
      vertex -41.0032 0 -107.046
      vertex -40.9981 -10 -106.929
    endloop
  endfacet
  facet normal 0.999048 0 -0.043617
    outer loop
      vertex -41.0032 0 -107.046
      vertex -40.9981 0 -106.929
      vertex -40.9981 -10 -106.929
    endloop
  endfacet
  facet normal 0.991442 0 -0.130549
    outer loop
      vertex -40.9981 -10 -106.929
      vertex -40.9981 0 -106.929
      vertex -40.9827 -10 -106.812
    endloop
  endfacet
  facet normal 0.991442 0 -0.130549
    outer loop
      vertex -40.9981 0 -106.929
      vertex -40.9827 0 -106.812
      vertex -40.9827 -10 -106.812
    endloop
  endfacet
  facet normal 0.976302 0 -0.216415
    outer loop
      vertex -40.9827 -10 -106.812
      vertex -40.9827 0 -106.812
      vertex -40.9572 -10 -106.697
    endloop
  endfacet
  facet normal 0.976302 0 -0.216415
    outer loop
      vertex -40.9827 0 -106.812
      vertex -40.9572 0 -106.697
      vertex -40.9572 -10 -106.697
    endloop
  endfacet
  facet normal 0.95371 0 -0.300727
    outer loop
      vertex -40.9572 -10 -106.697
      vertex -40.9572 0 -106.697
      vertex -40.9218 -10 -106.585
    endloop
  endfacet
  facet normal 0.95371 0 -0.300727
    outer loop
      vertex -40.9572 0 -106.697
      vertex -40.9218 0 -106.585
      vertex -40.9218 -10 -106.585
    endloop
  endfacet
  facet normal 0.923883 0 -0.382674
    outer loop
      vertex -40.9218 -10 -106.585
      vertex -40.9218 0 -106.585
      vertex -40.8767 -10 -106.476
    endloop
  endfacet
  facet normal 0.923883 0 -0.382674
    outer loop
      vertex -40.9218 0 -106.585
      vertex -40.8767 0 -106.476
      vertex -40.8767 -10 -106.476
    endloop
  endfacet
  facet normal 0.887007 0 -0.461755
    outer loop
      vertex -40.8767 -10 -106.476
      vertex -40.8767 0 -106.476
      vertex -40.8223 -10 -106.371
    endloop
  endfacet
  facet normal 0.887007 0 -0.461755
    outer loop
      vertex -40.8767 0 -106.476
      vertex -40.8223 0 -106.371
      vertex -40.8223 -10 -106.371
    endloop
  endfacet
  facet normal 0.843404 0 -0.537281
    outer loop
      vertex -40.8223 -10 -106.371
      vertex -40.8223 0 -106.371
      vertex -40.7591 -10 -106.272
    endloop
  endfacet
  facet normal 0.843404 0 -0.537281
    outer loop
      vertex -40.8223 0 -106.371
      vertex -40.7591 0 -106.272
      vertex -40.7591 -10 -106.272
    endloop
  endfacet
  facet normal 0.793355 0 -0.60876
    outer loop
      vertex -40.7591 -10 -106.272
      vertex -40.7591 0 -106.272
      vertex -40.6874 -10 -106.179
    endloop
  endfacet
  facet normal 0.793355 0 -0.60876
    outer loop
      vertex -40.7591 0 -106.272
      vertex -40.6874 0 -106.179
      vertex -40.6874 -10 -106.179
    endloop
  endfacet
  facet normal 0.737275 0 -0.675593
    outer loop
      vertex -40.6874 -10 -106.179
      vertex -40.6874 0 -106.179
      vertex -40.6078 -10 -106.092
    endloop
  endfacet
  facet normal 0.737275 0 -0.675593
    outer loop
      vertex -40.6874 0 -106.179
      vertex -40.6078 0 -106.092
      vertex -40.6078 -10 -106.092
    endloop
  endfacet
  facet normal 0.675593 0 -0.737275
    outer loop
      vertex -40.6078 -10 -106.092
      vertex -40.6078 0 -106.092
      vertex -40.521 -10 -106.012
    endloop
  endfacet
  facet normal 0.675593 0 -0.737275
    outer loop
      vertex -40.6078 0 -106.092
      vertex -40.521 0 -106.012
      vertex -40.521 -10 -106.012
    endloop
  endfacet
  facet normal 0.60876 0 -0.793355
    outer loop
      vertex -40.521 -10 -106.012
      vertex -40.521 0 -106.012
      vertex -40.4275 -10 -105.941
    endloop
  endfacet
  facet normal 0.60876 0 -0.793355
    outer loop
      vertex -40.521 0 -106.012
      vertex -40.4275 0 -105.941
      vertex -40.4275 -10 -105.941
    endloop
  endfacet
  facet normal 0.537295 0 -0.843394
    outer loop
      vertex -40.4275 -10 -105.941
      vertex -40.4275 0 -105.941
      vertex -40.3282 -10 -105.877
    endloop
  endfacet
  facet normal 0.537295 0 -0.843394
    outer loop
      vertex -40.4275 0 -105.941
      vertex -40.3282 0 -105.877
      vertex -40.3282 -10 -105.877
    endloop
  endfacet
  facet normal 0.461755 0 -0.887007
    outer loop
      vertex -40.3282 -10 -105.877
      vertex -40.3282 0 -105.877
      vertex -40.2238 -10 -105.823
    endloop
  endfacet
  facet normal 0.461755 0 -0.887007
    outer loop
      vertex -40.3282 0 -105.877
      vertex -40.2238 0 -105.823
      vertex -40.2238 -10 -105.823
    endloop
  endfacet
  facet normal 0.382674 0 -0.923883
    outer loop
      vertex -40.2238 -10 -105.823
      vertex -40.2238 0 -105.823
      vertex -40.1149 -10 -105.778
    endloop
  endfacet
  facet normal 0.382674 0 -0.923883
    outer loop
      vertex -40.2238 0 -105.823
      vertex -40.1149 0 -105.778
      vertex -40.1149 -10 -105.778
    endloop
  endfacet
  facet normal 0.300689 0 -0.953722
    outer loop
      vertex -40.1149 -10 -105.778
      vertex -40.1149 0 -105.778
      vertex -40.0026 -10 -105.742
    endloop
  endfacet
  facet normal 0.300689 0 -0.953722
    outer loop
      vertex -40.1149 0 -105.778
      vertex -40.0026 0 -105.742
      vertex -40.0026 -10 -105.742
    endloop
  endfacet
  facet normal 0.216482 0 -0.976287
    outer loop
      vertex -40.0026 -10 -105.742
      vertex -40.0026 0 -105.742
      vertex -39.8876 -10 -105.717
    endloop
  endfacet
  facet normal 0.216482 0 -0.976287
    outer loop
      vertex -40.0026 0 -105.742
      vertex -39.8876 0 -105.717
      vertex -39.8876 -10 -105.717
    endloop
  endfacet
  facet normal 0.13051 0 -0.991447
    outer loop
      vertex -39.8876 -10 -105.717
      vertex -39.8876 0 -105.717
      vertex -39.7709 -10 -105.702
    endloop
  endfacet
  facet normal 0.13051 0 -0.991447
    outer loop
      vertex -39.8876 0 -105.717
      vertex -39.7709 0 -105.702
      vertex -39.7709 -10 -105.702
    endloop
  endfacet
  facet normal 0.0435882 0 -0.99905
    outer loop
      vertex -39.7709 -10 -105.702
      vertex -39.7709 0 -105.702
      vertex -39.6532 -10 -105.696
    endloop
  endfacet
  facet normal 0.0435882 0 -0.99905
    outer loop
      vertex -39.7709 0 -105.702
      vertex -39.6532 0 -105.696
      vertex -39.6532 -10 -105.696
    endloop
  endfacet
  facet normal 0.0436382 0 0.999047
    outer loop
      vertex -39.6532 0 -104.16
      vertex -39.4016 -10 -104.171
      vertex -39.4016 0 -104.171
    endloop
  endfacet
  facet normal 0.130528 0 0.991445
    outer loop
      vertex -39.4016 -10 -104.171
      vertex -39.1519 -10 -104.204
      vertex -39.4016 0 -104.171
    endloop
  endfacet
  facet normal 0.130528 0 0.991445
    outer loop
      vertex -39.4016 0 -104.171
      vertex -39.1519 -10 -104.204
      vertex -39.1519 0 -104.204
    endloop
  endfacet
  facet normal 0.216445 0 0.976295
    outer loop
      vertex -39.1519 -10 -104.204
      vertex -38.9061 -10 -104.258
      vertex -39.1519 0 -104.204
    endloop
  endfacet
  facet normal 0.216445 0 0.976295
    outer loop
      vertex -39.1519 0 -104.204
      vertex -38.9061 -10 -104.258
      vertex -38.9061 0 -104.258
    endloop
  endfacet
  facet normal 0.300698 0 0.953719
    outer loop
      vertex -38.9061 -10 -104.258
      vertex -38.6659 -10 -104.334
      vertex -38.9061 0 -104.258
    endloop
  endfacet
  facet normal 0.300698 0 0.953719
    outer loop
      vertex -38.9061 0 -104.258
      vertex -38.6659 -10 -104.334
      vertex -38.6659 0 -104.334
    endloop
  endfacet
  facet normal 0.382682 0 0.92388
    outer loop
      vertex -38.6659 -10 -104.334
      vertex -38.4332 -10 -104.43
      vertex -38.6659 0 -104.334
    endloop
  endfacet
  facet normal 0.382682 0 0.92388
    outer loop
      vertex -38.6659 0 -104.334
      vertex -38.4332 -10 -104.43
      vertex -38.4332 0 -104.43
    endloop
  endfacet
  facet normal 0.46174 0 0.887015
    outer loop
      vertex -38.4332 -10 -104.43
      vertex -38.2098 -10 -104.546
      vertex -38.4332 0 -104.43
    endloop
  endfacet
  facet normal 0.46174 0 0.887015
    outer loop
      vertex -38.4332 0 -104.43
      vertex -38.2098 -10 -104.546
      vertex -38.2098 0 -104.546
    endloop
  endfacet
  facet normal 0.537294 0 0.843395
    outer loop
      vertex -38.2098 -10 -104.546
      vertex -37.9974 -10 -104.682
      vertex -38.2098 0 -104.546
    endloop
  endfacet
  facet normal 0.537294 0 0.843395
    outer loop
      vertex -38.2098 0 -104.546
      vertex -37.9974 -10 -104.682
      vertex -37.9974 0 -104.682
    endloop
  endfacet
  facet normal 0.608768 0 0.793348
    outer loop
      vertex -37.9974 -10 -104.682
      vertex -37.7976 -10 -104.835
      vertex -37.9974 0 -104.682
    endloop
  endfacet
  facet normal 0.608768 0 0.793348
    outer loop
      vertex -37.9974 0 -104.682
      vertex -37.7976 -10 -104.835
      vertex -37.7976 0 -104.835
    endloop
  endfacet
  facet normal 0.675599 0 0.737269
    outer loop
      vertex -37.7976 -10 -104.835
      vertex -37.612 -10 -105.005
      vertex -37.7976 0 -104.835
    endloop
  endfacet
  facet normal 0.675599 0 0.737269
    outer loop
      vertex -37.7976 0 -104.835
      vertex -37.612 -10 -105.005
      vertex -37.612 0 -105.005
    endloop
  endfacet
  facet normal 0.737262 0 0.675607
    outer loop
      vertex -37.612 -10 -105.005
      vertex -37.4418 -10 -105.191
      vertex -37.612 0 -105.005
    endloop
  endfacet
  facet normal 0.737262 0 0.675607
    outer loop
      vertex -37.612 0 -105.005
      vertex -37.4418 -10 -105.191
      vertex -37.4418 0 -105.191
    endloop
  endfacet
  facet normal 0.793366 0 0.608745
    outer loop
      vertex -37.4418 -10 -105.191
      vertex -37.2885 -10 -105.391
      vertex -37.4418 0 -105.191
    endloop
  endfacet
  facet normal 0.793366 0 0.608745
    outer loop
      vertex -37.4418 0 -105.191
      vertex -37.2885 -10 -105.391
      vertex -37.2885 0 -105.391
    endloop
  endfacet
  facet normal 0.843384 0 0.537311
    outer loop
      vertex -37.2885 -10 -105.391
      vertex -37.1532 -10 -105.603
      vertex -37.2885 0 -105.391
    endloop
  endfacet
  facet normal 0.843384 0 0.537311
    outer loop
      vertex -37.2885 0 -105.391
      vertex -37.1532 -10 -105.603
      vertex -37.1532 0 -105.603
    endloop
  endfacet
  facet normal 0.887013 0 0.461745
    outer loop
      vertex -37.1532 -10 -105.603
      vertex -37.0369 -10 -105.826
      vertex -37.1532 0 -105.603
    endloop
  endfacet
  facet normal 0.887013 0 0.461745
    outer loop
      vertex -37.1532 0 -105.603
      vertex -37.0369 -10 -105.826
      vertex -37.0369 0 -105.826
    endloop
  endfacet
  facet normal 0.92388 0 0.382682
    outer loop
      vertex -37.0369 -10 -105.826
      vertex -36.9406 -10 -106.059
      vertex -37.0369 0 -105.826
    endloop
  endfacet
  facet normal 0.92388 0 0.382682
    outer loop
      vertex -37.0369 0 -105.826
      vertex -36.9406 -10 -106.059
      vertex -36.9406 0 -106.059
    endloop
  endfacet
  facet normal 0.953717 0 0.300707
    outer loop
      vertex -36.9406 -10 -106.059
      vertex -36.8648 -10 -106.299
      vertex -36.9406 0 -106.059
    endloop
  endfacet
  facet normal 0.953717 0 0.300707
    outer loop
      vertex -36.9406 0 -106.059
      vertex -36.8648 -10 -106.299
      vertex -36.8648 0 -106.299
    endloop
  endfacet
  facet normal 0.976296 0 0.216442
    outer loop
      vertex -36.8648 -10 -106.299
      vertex -36.8103 -10 -106.545
      vertex -36.8648 0 -106.299
    endloop
  endfacet
  facet normal 0.976296 0 0.216442
    outer loop
      vertex -36.8648 0 -106.299
      vertex -36.8103 -10 -106.545
      vertex -36.8103 0 -106.545
    endloop
  endfacet
  facet normal 0.991445 0 0.130528
    outer loop
      vertex -36.8103 -10 -106.545
      vertex -36.7774 -10 -106.795
      vertex -36.8103 0 -106.545
    endloop
  endfacet
  facet normal 0.991445 0 0.130528
    outer loop
      vertex -36.8103 0 -106.545
      vertex -36.7774 -10 -106.795
      vertex -36.7774 0 -106.795
    endloop
  endfacet
  facet normal 0.999049 0 0.043608
    outer loop
      vertex -36.7774 -10 -106.795
      vertex -36.7665 -10 -107.046
      vertex -36.7774 0 -106.795
    endloop
  endfacet
  facet normal 0.999049 0 0.043608
    outer loop
      vertex -36.7774 0 -106.795
      vertex -36.7665 -10 -107.046
      vertex -36.7665 0 -107.046
    endloop
  endfacet
  facet normal 0.999049 0 -0.0436093
    outer loop
      vertex -36.7665 -10 -107.046
      vertex -36.7774 -10 -107.298
      vertex -36.7665 0 -107.046
    endloop
  endfacet
  facet normal 0.999049 0 -0.0436093
    outer loop
      vertex -36.7665 0 -107.046
      vertex -36.7774 -10 -107.298
      vertex -36.7774 0 -107.298
    endloop
  endfacet
  facet normal 0.991445 0 -0.130528
    outer loop
      vertex -36.7774 -10 -107.298
      vertex -36.8103 -10 -107.548
      vertex -36.7774 0 -107.298
    endloop
  endfacet
  facet normal 0.991445 0 -0.130528
    outer loop
      vertex -36.7774 0 -107.298
      vertex -36.8103 -10 -107.548
      vertex -36.8103 0 -107.548
    endloop
  endfacet
  facet normal 0.976296 0 -0.216442
    outer loop
      vertex -36.8103 -10 -107.548
      vertex -36.8648 -10 -107.794
      vertex -36.8103 0 -107.548
    endloop
  endfacet
  facet normal 0.976296 0 -0.216442
    outer loop
      vertex -36.8103 0 -107.548
      vertex -36.8648 -10 -107.794
      vertex -36.8648 0 -107.794
    endloop
  endfacet
  facet normal 0.953717 0 -0.300707
    outer loop
      vertex -36.8648 -10 -107.794
      vertex -36.9406 -10 -108.034
      vertex -36.8648 0 -107.794
    endloop
  endfacet
  facet normal 0.953717 0 -0.300707
    outer loop
      vertex -36.8648 0 -107.794
      vertex -36.9406 -10 -108.034
      vertex -36.9406 0 -108.034
    endloop
  endfacet
  facet normal 0.92388 0 -0.382682
    outer loop
      vertex -36.9406 -10 -108.034
      vertex -37.0369 -10 -108.266
      vertex -36.9406 0 -108.034
    endloop
  endfacet
  facet normal 0.92388 0 -0.382682
    outer loop
      vertex -36.9406 0 -108.034
      vertex -37.0369 -10 -108.266
      vertex -37.0369 0 -108.266
    endloop
  endfacet
  facet normal 0.887013 0 -0.461745
    outer loop
      vertex -37.0369 -10 -108.266
      vertex -37.1532 -10 -108.49
      vertex -37.0369 0 -108.266
    endloop
  endfacet
  facet normal 0.887013 0 -0.461745
    outer loop
      vertex -37.0369 0 -108.266
      vertex -37.1532 -10 -108.49
      vertex -37.1532 0 -108.49
    endloop
  endfacet
  facet normal 0.843393 0 -0.537298
    outer loop
      vertex -37.1532 -10 -108.49
      vertex -37.2885 -10 -108.702
      vertex -37.1532 0 -108.49
    endloop
  endfacet
  facet normal 0.843393 0 -0.537298
    outer loop
      vertex -37.1532 0 -108.49
      vertex -37.2885 -10 -108.702
      vertex -37.2885 0 -108.702
    endloop
  endfacet
  facet normal 0.793355 0 -0.608759
    outer loop
      vertex -37.2885 -10 -108.702
      vertex -37.4418 -10 -108.902
      vertex -37.2885 0 -108.702
    endloop
  endfacet
  facet normal 0.793355 0 -0.608759
    outer loop
      vertex -37.2885 0 -108.702
      vertex -37.4418 -10 -108.902
      vertex -37.4418 0 -108.902
    endloop
  endfacet
  facet normal 0.737262 0 -0.675607
    outer loop
      vertex -37.4418 -10 -108.902
      vertex -37.612 -10 -109.088
      vertex -37.4418 0 -108.902
    endloop
  endfacet
  facet normal 0.737262 0 -0.675607
    outer loop
      vertex -37.4418 0 -108.902
      vertex -37.612 -10 -109.088
      vertex -37.612 0 -109.088
    endloop
  endfacet
  facet normal 0.675599 0 -0.737269
    outer loop
      vertex -37.612 -10 -109.088
      vertex -37.7976 -10 -109.258
      vertex -37.612 0 -109.088
    endloop
  endfacet
  facet normal 0.675599 0 -0.737269
    outer loop
      vertex -37.612 0 -109.088
      vertex -37.7976 -10 -109.258
      vertex -37.7976 0 -109.258
    endloop
  endfacet
  facet normal 0.608768 0 -0.793348
    outer loop
      vertex -37.7976 -10 -109.258
      vertex -37.9974 -10 -109.411
      vertex -37.7976 0 -109.258
    endloop
  endfacet
  facet normal 0.608768 0 -0.793348
    outer loop
      vertex -37.7976 0 -109.258
      vertex -37.9974 -10 -109.411
      vertex -37.9974 0 -109.411
    endloop
  endfacet
  facet normal 0.537294 0 -0.843395
    outer loop
      vertex -37.9974 -10 -109.411
      vertex -38.2098 -10 -109.546
      vertex -37.9974 0 -109.411
    endloop
  endfacet
  facet normal 0.537294 0 -0.843395
    outer loop
      vertex -37.9974 0 -109.411
      vertex -38.2098 -10 -109.546
      vertex -38.2098 0 -109.546
    endloop
  endfacet
  facet normal 0.46174 0 -0.887015
    outer loop
      vertex -38.2098 -10 -109.546
      vertex -38.4332 -10 -109.663
      vertex -38.2098 0 -109.546
    endloop
  endfacet
  facet normal 0.46174 0 -0.887015
    outer loop
      vertex -38.2098 0 -109.546
      vertex -38.4332 -10 -109.663
      vertex -38.4332 0 -109.663
    endloop
  endfacet
  facet normal 0.382682 0 -0.92388
    outer loop
      vertex -38.4332 -10 -109.663
      vertex -38.6659 -10 -109.759
      vertex -38.4332 0 -109.663
    endloop
  endfacet
  facet normal 0.382682 0 -0.92388
    outer loop
      vertex -38.4332 0 -109.663
      vertex -38.6659 -10 -109.759
      vertex -38.6659 0 -109.759
    endloop
  endfacet
  facet normal 0.300725 0 -0.953711
    outer loop
      vertex -38.6659 -10 -109.759
      vertex -38.9061 -10 -109.835
      vertex -38.6659 0 -109.759
    endloop
  endfacet
  facet normal 0.300725 0 -0.953711
    outer loop
      vertex -38.6659 0 -109.759
      vertex -38.9061 -10 -109.835
      vertex -38.9061 0 -109.835
    endloop
  endfacet
  facet normal 0.216417 0 -0.976301
    outer loop
      vertex -38.9061 -10 -109.835
      vertex -39.1519 -10 -109.889
      vertex -38.9061 0 -109.835
    endloop
  endfacet
  facet normal 0.216417 0 -0.976301
    outer loop
      vertex -38.9061 0 -109.835
      vertex -39.1519 -10 -109.889
      vertex -39.1519 0 -109.889
    endloop
  endfacet
  facet normal 0.130528 0 -0.991445
    outer loop
      vertex -39.1519 -10 -109.889
      vertex -39.4016 -10 -109.922
      vertex -39.1519 0 -109.889
    endloop
  endfacet
  facet normal 0.130528 0 -0.991445
    outer loop
      vertex -39.1519 0 -109.889
      vertex -39.4016 -10 -109.922
      vertex -39.4016 0 -109.922
    endloop
  endfacet
  facet normal 0.0436382 0 -0.999047
    outer loop
      vertex -39.4016 -10 -109.922
      vertex -39.6532 -10 -109.933
      vertex -39.4016 0 -109.922
    endloop
  endfacet
  facet normal 0.0436382 0 -0.999047
    outer loop
      vertex -39.4016 0 -109.922
      vertex -39.6532 -10 -109.933
      vertex -39.6532 0 -109.933
    endloop
  endfacet
  facet normal -0.0436375 0 -0.999047
    outer loop
      vertex -39.6532 -10 -109.933
      vertex -39.9048 -10 -109.922
      vertex -39.6532 0 -109.933
    endloop
  endfacet
  facet normal -0.0436375 0 -0.999047
    outer loop
      vertex -39.6532 0 -109.933
      vertex -39.9048 -10 -109.922
      vertex -39.9048 0 -109.922
    endloop
  endfacet
  facet normal -0.13053 0 -0.991444
    outer loop
      vertex -39.9048 -10 -109.922
      vertex -40.1545 -10 -109.889
      vertex -39.9048 0 -109.922
    endloop
  endfacet
  facet normal -0.13053 0 -0.991444
    outer loop
      vertex -39.9048 0 -109.922
      vertex -40.1545 -10 -109.889
      vertex -40.1545 0 -109.889
    endloop
  endfacet
  facet normal -0.216414 0 -0.976302
    outer loop
      vertex -40.1545 -10 -109.889
      vertex -40.4004 -10 -109.835
      vertex -40.1545 0 -109.889
    endloop
  endfacet
  facet normal -0.216414 0 -0.976302
    outer loop
      vertex -40.1545 0 -109.889
      vertex -40.4004 -10 -109.835
      vertex -40.4004 0 -109.835
    endloop
  endfacet
  facet normal -0.300729 0 -0.95371
    outer loop
      vertex -40.4004 -10 -109.835
      vertex -40.6405 -10 -109.759
      vertex -40.4004 0 -109.835
    endloop
  endfacet
  facet normal -0.300729 0 -0.95371
    outer loop
      vertex -40.4004 0 -109.835
      vertex -40.6405 -10 -109.759
      vertex -40.6405 0 -109.759
    endloop
  endfacet
  facet normal -0.382682 0 -0.92388
    outer loop
      vertex -40.6405 -10 -109.759
      vertex -40.8732 -10 -109.663
      vertex -40.6405 0 -109.759
    endloop
  endfacet
  facet normal -0.382682 0 -0.92388
    outer loop
      vertex -40.6405 0 -109.759
      vertex -40.8732 -10 -109.663
      vertex -40.8732 0 -109.663
    endloop
  endfacet
  facet normal -0.46174 0 -0.887015
    outer loop
      vertex -40.8732 -10 -109.663
      vertex -41.0966 -10 -109.546
      vertex -40.8732 0 -109.663
    endloop
  endfacet
  facet normal -0.46174 0 -0.887015
    outer loop
      vertex -40.8732 0 -109.663
      vertex -41.0966 -10 -109.546
      vertex -41.0966 0 -109.546
    endloop
  endfacet
  facet normal -0.537294 0 -0.843395
    outer loop
      vertex -41.0966 -10 -109.546
      vertex -41.309 -10 -109.411
      vertex -41.0966 0 -109.546
    endloop
  endfacet
  facet normal -0.537294 0 -0.843395
    outer loop
      vertex -41.0966 0 -109.546
      vertex -41.309 -10 -109.411
      vertex -41.309 0 -109.411
    endloop
  endfacet
  facet normal -0.608768 0 -0.793348
    outer loop
      vertex -41.309 -10 -109.411
      vertex -41.5088 -10 -109.258
      vertex -41.309 0 -109.411
    endloop
  endfacet
  facet normal -0.608768 0 -0.793348
    outer loop
      vertex -41.309 0 -109.411
      vertex -41.5088 -10 -109.258
      vertex -41.5088 0 -109.258
    endloop
  endfacet
  facet normal -0.675592 0 -0.737276
    outer loop
      vertex -41.5088 -10 -109.258
      vertex -41.6945 -10 -109.088
      vertex -41.5088 0 -109.258
    endloop
  endfacet
  facet normal -0.675592 0 -0.737276
    outer loop
      vertex -41.5088 0 -109.258
      vertex -41.6945 -10 -109.088
      vertex -41.6945 0 -109.088
    endloop
  endfacet
  facet normal -0.73727 0 -0.675599
    outer loop
      vertex -41.6945 -10 -109.088
      vertex -41.8646 -10 -108.902
      vertex -41.6945 0 -109.088
    endloop
  endfacet
  facet normal -0.73727 0 -0.675599
    outer loop
      vertex -41.6945 0 -109.088
      vertex -41.8646 -10 -108.902
      vertex -41.8646 0 -108.902
    endloop
  endfacet
  facet normal -0.793355 0 -0.608759
    outer loop
      vertex -41.8646 -10 -108.902
      vertex -42.0179 -10 -108.702
      vertex -41.8646 0 -108.902
    endloop
  endfacet
  facet normal -0.793355 0 -0.608759
    outer loop
      vertex -41.8646 0 -108.902
      vertex -42.0179 -10 -108.702
      vertex -42.0179 0 -108.702
    endloop
  endfacet
  facet normal -0.843393 0 -0.537298
    outer loop
      vertex -42.0179 -10 -108.702
      vertex -42.1532 -10 -108.49
      vertex -42.0179 0 -108.702
    endloop
  endfacet
  facet normal -0.843393 0 -0.537298
    outer loop
      vertex -42.0179 0 -108.702
      vertex -42.1532 -10 -108.49
      vertex -42.1532 0 -108.49
    endloop
  endfacet
  facet normal -0.887013 0 -0.461745
    outer loop
      vertex -42.1532 -10 -108.49
      vertex -42.2695 -10 -108.266
      vertex -42.1532 0 -108.49
    endloop
  endfacet
  facet normal -0.887013 0 -0.461745
    outer loop
      vertex -42.1532 0 -108.49
      vertex -42.2695 -10 -108.266
      vertex -42.2695 0 -108.266
    endloop
  endfacet
  facet normal -0.92388 0 -0.382682
    outer loop
      vertex -42.2695 -10 -108.266
      vertex -42.3659 -10 -108.034
      vertex -42.2695 0 -108.266
    endloop
  endfacet
  facet normal -0.92388 0 -0.382682
    outer loop
      vertex -42.2695 0 -108.266
      vertex -42.3659 -10 -108.034
      vertex -42.3659 0 -108.034
    endloop
  endfacet
  facet normal -0.953717 0 -0.300707
    outer loop
      vertex -42.3659 -10 -108.034
      vertex -42.4416 -10 -107.794
      vertex -42.3659 0 -108.034
    endloop
  endfacet
  facet normal -0.953717 0 -0.300707
    outer loop
      vertex -42.3659 0 -108.034
      vertex -42.4416 -10 -107.794
      vertex -42.4416 0 -107.794
    endloop
  endfacet
  facet normal -0.976296 0 -0.216442
    outer loop
      vertex -42.4416 -10 -107.794
      vertex -42.4961 -10 -107.548
      vertex -42.4416 0 -107.794
    endloop
  endfacet
  facet normal -0.976296 0 -0.216442
    outer loop
      vertex -42.4416 0 -107.794
      vertex -42.4961 -10 -107.548
      vertex -42.4961 0 -107.548
    endloop
  endfacet
  facet normal -0.991445 0 -0.130528
    outer loop
      vertex -42.4961 -10 -107.548
      vertex -42.529 -10 -107.298
      vertex -42.4961 0 -107.548
    endloop
  endfacet
  facet normal -0.991445 0 -0.130528
    outer loop
      vertex -42.4961 0 -107.548
      vertex -42.529 -10 -107.298
      vertex -42.529 0 -107.298
    endloop
  endfacet
  facet normal -0.999049 0 -0.0436093
    outer loop
      vertex -42.529 -10 -107.298
      vertex -42.54 -10 -107.046
      vertex -42.529 0 -107.298
    endloop
  endfacet
  facet normal -0.999049 0 -0.0436093
    outer loop
      vertex -42.529 0 -107.298
      vertex -42.54 -10 -107.046
      vertex -42.54 0 -107.046
    endloop
  endfacet
  facet normal -0.999049 0 0.043608
    outer loop
      vertex -42.54 -10 -107.046
      vertex -42.529 -10 -106.795
      vertex -42.54 0 -107.046
    endloop
  endfacet
  facet normal -0.999049 0 0.043608
    outer loop
      vertex -42.54 0 -107.046
      vertex -42.529 -10 -106.795
      vertex -42.529 0 -106.795
    endloop
  endfacet
  facet normal -0.991445 0 0.130528
    outer loop
      vertex -42.529 -10 -106.795
      vertex -42.4961 -10 -106.545
      vertex -42.529 0 -106.795
    endloop
  endfacet
  facet normal -0.991445 0 0.130528
    outer loop
      vertex -42.529 0 -106.795
      vertex -42.4961 -10 -106.545
      vertex -42.4961 0 -106.545
    endloop
  endfacet
  facet normal -0.976296 0 0.216442
    outer loop
      vertex -42.4961 -10 -106.545
      vertex -42.4416 -10 -106.299
      vertex -42.4961 0 -106.545
    endloop
  endfacet
  facet normal -0.976296 0 0.216442
    outer loop
      vertex -42.4961 0 -106.545
      vertex -42.4416 -10 -106.299
      vertex -42.4416 0 -106.299
    endloop
  endfacet
  facet normal -0.953717 0 0.300707
    outer loop
      vertex -42.4416 -10 -106.299
      vertex -42.3659 -10 -106.059
      vertex -42.4416 0 -106.299
    endloop
  endfacet
  facet normal -0.953717 0 0.300707
    outer loop
      vertex -42.4416 0 -106.299
      vertex -42.3659 -10 -106.059
      vertex -42.3659 0 -106.059
    endloop
  endfacet
  facet normal -0.92388 0 0.382682
    outer loop
      vertex -42.3659 -10 -106.059
      vertex -42.2695 -10 -105.826
      vertex -42.3659 0 -106.059
    endloop
  endfacet
  facet normal -0.92388 0 0.382682
    outer loop
      vertex -42.3659 0 -106.059
      vertex -42.2695 -10 -105.826
      vertex -42.2695 0 -105.826
    endloop
  endfacet
  facet normal -0.887013 0 0.461745
    outer loop
      vertex -42.2695 -10 -105.826
      vertex -42.1532 -10 -105.603
      vertex -42.2695 0 -105.826
    endloop
  endfacet
  facet normal -0.887013 0 0.461745
    outer loop
      vertex -42.2695 0 -105.826
      vertex -42.1532 -10 -105.603
      vertex -42.1532 0 -105.603
    endloop
  endfacet
  facet normal -0.843384 0 0.537311
    outer loop
      vertex -42.1532 -10 -105.603
      vertex -42.0179 -10 -105.391
      vertex -42.1532 0 -105.603
    endloop
  endfacet
  facet normal -0.843384 0 0.537311
    outer loop
      vertex -42.1532 0 -105.603
      vertex -42.0179 -10 -105.391
      vertex -42.0179 0 -105.391
    endloop
  endfacet
  facet normal -0.793366 0 0.608745
    outer loop
      vertex -42.0179 -10 -105.391
      vertex -41.8646 -10 -105.191
      vertex -42.0179 0 -105.391
    endloop
  endfacet
  facet normal -0.793366 0 0.608745
    outer loop
      vertex -42.0179 0 -105.391
      vertex -41.8646 -10 -105.191
      vertex -41.8646 0 -105.191
    endloop
  endfacet
  facet normal -0.73727 0 0.675599
    outer loop
      vertex -41.8646 -10 -105.191
      vertex -41.6945 -10 -105.005
      vertex -41.8646 0 -105.191
    endloop
  endfacet
  facet normal -0.73727 0 0.675599
    outer loop
      vertex -41.8646 0 -105.191
      vertex -41.6945 -10 -105.005
      vertex -41.6945 0 -105.005
    endloop
  endfacet
  facet normal -0.675592 0 0.737276
    outer loop
      vertex -41.6945 -10 -105.005
      vertex -41.5088 -10 -104.835
      vertex -41.6945 0 -105.005
    endloop
  endfacet
  facet normal -0.675592 0 0.737276
    outer loop
      vertex -41.6945 0 -105.005
      vertex -41.5088 -10 -104.835
      vertex -41.5088 0 -104.835
    endloop
  endfacet
  facet normal -0.608768 0 0.793348
    outer loop
      vertex -41.5088 -10 -104.835
      vertex -41.309 -10 -104.682
      vertex -41.5088 0 -104.835
    endloop
  endfacet
  facet normal -0.608768 0 0.793348
    outer loop
      vertex -41.5088 0 -104.835
      vertex -41.309 -10 -104.682
      vertex -41.309 0 -104.682
    endloop
  endfacet
  facet normal -0.537294 0 0.843395
    outer loop
      vertex -41.309 -10 -104.682
      vertex -41.0966 -10 -104.546
      vertex -41.309 0 -104.682
    endloop
  endfacet
  facet normal -0.537294 0 0.843395
    outer loop
      vertex -41.309 0 -104.682
      vertex -41.0966 -10 -104.546
      vertex -41.0966 0 -104.546
    endloop
  endfacet
  facet normal -0.46174 0 0.887015
    outer loop
      vertex -41.0966 -10 -104.546
      vertex -40.8732 -10 -104.43
      vertex -41.0966 0 -104.546
    endloop
  endfacet
  facet normal -0.46174 0 0.887015
    outer loop
      vertex -41.0966 0 -104.546
      vertex -40.8732 -10 -104.43
      vertex -40.8732 0 -104.43
    endloop
  endfacet
  facet normal -0.382682 0 0.92388
    outer loop
      vertex -40.8732 -10 -104.43
      vertex -40.6405 -10 -104.334
      vertex -40.8732 0 -104.43
    endloop
  endfacet
  facet normal -0.382682 0 0.92388
    outer loop
      vertex -40.8732 0 -104.43
      vertex -40.6405 -10 -104.334
      vertex -40.6405 0 -104.334
    endloop
  endfacet
  facet normal -0.300702 0 0.953718
    outer loop
      vertex -40.6405 -10 -104.334
      vertex -40.4004 -10 -104.258
      vertex -40.6405 0 -104.334
    endloop
  endfacet
  facet normal -0.300702 0 0.953718
    outer loop
      vertex -40.6405 0 -104.334
      vertex -40.4004 -10 -104.258
      vertex -40.4004 0 -104.258
    endloop
  endfacet
  facet normal -0.216442 0 0.976296
    outer loop
      vertex -40.4004 -10 -104.258
      vertex -40.1545 -10 -104.204
      vertex -40.4004 0 -104.258
    endloop
  endfacet
  facet normal -0.216442 0 0.976296
    outer loop
      vertex -40.4004 0 -104.258
      vertex -40.1545 -10 -104.204
      vertex -40.1545 0 -104.204
    endloop
  endfacet
  facet normal -0.13053 0 0.991444
    outer loop
      vertex -40.1545 -10 -104.204
      vertex -39.9048 -10 -104.171
      vertex -40.1545 0 -104.204
    endloop
  endfacet
  facet normal -0.13053 0 0.991444
    outer loop
      vertex -40.1545 0 -104.204
      vertex -39.9048 -10 -104.171
      vertex -39.9048 0 -104.171
    endloop
  endfacet
  facet normal -0.0436375 0 0.999047
    outer loop
      vertex -39.9048 -10 -104.171
      vertex -39.6532 -10 -104.16
      vertex -39.9048 0 -104.171
    endloop
  endfacet
  facet normal -0.0436375 0 0.999047
    outer loop
      vertex -39.9048 0 -104.171
      vertex -39.6532 -10 -104.16
      vertex -39.6532 0 -104.16
    endloop
  endfacet
  facet normal 0.0436382 0 0.999047
    outer loop
      vertex -39.6532 -10 -104.16
      vertex -39.4016 -10 -104.171
      vertex -39.6532 0 -104.16
    endloop
  endfacet
endsolid Mesh
